<svg id="Layer_4" data-name="Layer 4" xmlns="http://www.w3.org/2000/svg" viewBox="0 0 28 28"><title>goods</title><path d="M26.3,20.34h-.81V11.52a.82.82,0,0,0-.77-.86H20.13V1.86a.83.83,0,0,0-.8-.86H8.64a.83.83,0,0,0-.8.86h0v8.8H3.26a.83.83,0,0,0-.77.86v8.82H1.66a.85.85,0,0,0-.83.84h0v5.13a.84.84,0,0,0,.81.86H4.88a.86.86,0,0,0,.8-.86h0v-.86h5.88v.86a.86.86,0,0,0,.81.86h3.22a.86.86,0,0,0,.8-.86h0v-.86h5.89v.86a.85.85,0,0,0,.79.86h3.2a.85.85,0,0,0,.81-.84h0V21.21A.86.86,0,0,0,26.3,20.34Zm-2.41-8v8H14.77v-8ZM9.36,2.7h9.19v8H9.36ZM4.11,12.38h9.06v8H4.11ZM25.53,25.45H23.88v-.86a.84.84,0,0,0-.81-.84H15.59a.84.84,0,0,0-.81.86h0v.86h-1.6v-.87a.84.84,0,0,0-.8-.84H4.88a.84.84,0,0,0-.81.86h.05v.86H2.49V22.05h23Z" style="fill:#616161"/></svg>