<svg id="Layer_2" data-name="Layer 2" xmlns="http://www.w3.org/2000/svg" viewBox="0 0 15.89 20"><path d="M8,19H7.81a1.06,1.06,0,0,1-.76-.49c-1.27-1.7-5.53-7.66-5.53-11.47A6.28,6.28,0,0,1,8,1a6.7,6.7,0,0,1,4.72,1.93,5.77,5.77,0,0,1,1.7,4.18c0,2.55-1.85,6.4-5.5,11.44a.58.58,0,0,1-.24.25A.92.92,0,0,1,8,19ZM8,1.86a5.38,5.38,0,0,0-5.53,5.2c0,2.82,2.78,7.54,5.37,11,.06.08.11.1.13.1H8l.08-.07h0c4.45-6.11,5.38-9.35,5.38-11A4.89,4.89,0,0,0,12,3.55,5.75,5.75,0,0,0,8,1.86Z" style="fill:#616161;stroke:#616161;stroke-miterlimit:10;stroke-width:0.25px"/><path d="M8,9.46a2.4,2.4,0,1,1,2.42-2.4h0A2.43,2.43,0,0,1,8,9.46Zm0-3.9a1.5,1.5,0,1,0,1.51,1.5h0A1.49,1.49,0,0,0,8,5.56Z" style="fill:#616161;stroke:#616161;stroke-miterlimit:10;stroke-width:0.25px"/></svg>