<svg id="Layer_1" data-name="Layer 1" xmlns="http://www.w3.org/2000/svg" viewBox="0 0 20 12.5"><path d="M19.8,7,18.2,3.5a1.75,1.75,0,0,0-1.5-1H13.8V1.2A1.22,1.22,0,0,0,12.6,0H2.1A1.31,1.31,0,0,0,.8,1.2v5c0,.2.3.4.5.4s.3-.2.4-.4h0v-5A.43.43,0,0,1,2.1.8H12.5a.43.43,0,0,1,.4.4h0V7.9a.43.43,0,0,1-.4.4h-5a.4.4,0,1,0,0,.8h5a1.22,1.22,0,0,0,1.2-1.2V3.3h2.9a1,1,0,0,1,.8.5l.2.4H15.8A.79.79,0,0,0,15,5V6.7a.79.79,0,0,0,.8.8h3.3V9.6a.43.43,0,0,1-.4.4H17.4A2,2,0,0,0,15,8.4,2,2,0,0,0,13.4,10H6.6A2.05,2.05,0,0,0,4.2,8.4h0A2,2,0,0,0,2.5,10H2.1a.43.43,0,0,1-.4-.4h0V9.2a.4.4,0,1,0,0-.8H.4c-.2-.1-.4.1-.4.4a.43.43,0,0,0,.4.4H.8v.4A1.22,1.22,0,0,0,2,10.8h.5A2.2,2.2,0,0,0,5,12.5a2,2,0,0,0,1.6-1.6h6.8a2,2,0,0,0,2.4,1.6,2,2,0,0,0,1.6-1.6h1.3a1.22,1.22,0,0,0,1.2-1.2V7.9A1.41,1.41,0,0,0,19.8,7ZM4.6,11.7a1.22,1.22,0,0,1-1.2-1.2A1.29,1.29,0,0,1,4.6,9.3a1.29,1.29,0,0,1,1.2,1.2A1.22,1.22,0,0,1,4.6,11.7Zm10.8,0a1.22,1.22,0,0,1-1.2-1.2,1.29,1.29,0,0,1,1.2-1.2,1.2,1.2,0,1,1,0,2.4ZM15.8,5H18l.8,1.7H15.9V5Z" style="fill:#616161"/><path d="M.4,7.9H2.5a.4.4,0,0,0,0-.8H.4a.4.4,0,0,0,0,.8Z" style="fill:#616161"/><path d="M6.9,1.2A3.37,3.37,0,0,0,3.5,4.6,3.29,3.29,0,0,0,6.9,7.9a3.37,3.37,0,0,0,3.4-3.4h0A3.49,3.49,0,0,0,6.9,1.2Zm0,6.5A3.1,3.1,0,1,1,10,4.6,3.12,3.12,0,0,1,6.9,7.7Z" style="stroke:#616161;stroke-miterlimit:10;stroke-width:0.3472000062465668px"/><path d="M8.1,3.3H7.9l-1,1.1L5.8,3.3H5.6a.14.14,0,0,0,0,.2h0L6.7,4.6l-1.1,1a.14.14,0,0,0,0,.2h.2L6.9,4.7,8,5.8a.14.14,0,0,0,.2,0h0V5.6l-1.1-1L8.2,3.5C8.2,3.4,8.2,3.4,8.1,3.3Z" style="stroke:#616161;stroke-miterlimit:10;stroke-width:0.3472000062465668px"/></svg>