<svg id="Layer_2" data-name="Layer 2" xmlns="http://www.w3.org/2000/svg" viewBox="0 0 21 21"><g id="SVGRepo_iconCarrier" data-name="SVGRepo iconCarrier"><path d="M19.61,18.29H18V16.38c0-1.92-1.54-3.68-4.34-5a1,1,0,0,1,0-1.82c2.8-1.29,4.34-3,4.34-5V2.71h1.57c.49,0,.89-.27.89-.6s-.4-.61-.89-.61H1.39C.9,1.5.5,1.77.5,2.11s.4.6.89.6H3V4.62C3,6.54,4.5,8.3,7.3,9.59a1,1,0,0,1,0,1.82C4.5,12.7,3,14.46,3,16.38v1.91H1.39c-.49,0-.89.27-.89.6s.4.61.89.61H19.61c.49,0,.89-.27.89-.61S20.1,18.29,19.61,18.29ZM4.74,16.38c0-2,2.23-3.35,3.56-4A2.14,2.14,0,0,0,9.66,10.5,2.14,2.14,0,0,0,8.3,8.58C7,8,4.74,6.65,4.74,4.62V2.71H16.26V4.62c0,2-2.23,3.35-3.56,4a2.14,2.14,0,0,0-1.36,1.92,2.14,2.14,0,0,0,1.36,1.92c1.33.61,3.56,1.93,3.56,4v1.91H16c-.73-1.87-4.46-3.91-4.92-4.15a1.19,1.19,0,0,0-1.1,0c-.46.24-4.19,2.28-4.92,4.15H4.74V16.38Zm9.36,1.91H6.9a12.06,12.06,0,0,1,3.6-2.9A12.06,12.06,0,0,1,14.1,18.29Z" style="fill:#616161"/><path d="M10.5,13.08a1.19,1.19,0,0,0,.63-.18.55.55,0,0,0,.26-.43.56.56,0,0,0-.26-.43,1.25,1.25,0,0,0-1.26,0,.56.56,0,0,0-.26.43.55.55,0,0,0,.26.43A1.19,1.19,0,0,0,10.5,13.08Z" style="fill:#616161"/><path d="M10.5,9.86c.49,0,.89-.27.89-.6V8.19c0-.34-.4-.61-.89-.61s-.89.27-.89.61V9.26C9.61,9.59,10,9.86,10.5,9.86Z" style="fill:#616161"/></g></svg>