<svg id="Layer_2" data-name="Layer 2" xmlns="http://www.w3.org/2000/svg" viewBox="0 0 21 21"><path d="M18,6h-2.5V2.3a.7.7,0,0,0-.62-.75H1.15a.69.69,0,0,0-.62.75V15.71a.7.7,0,0,0,.62.75h.63V3H14.23v8.72a4.08,4.08,0,0,1,1-.15h.28V7.53H18A1.39,1.39,0,0,1,19.22,9h0v.76h-2.5v1.48h2.5V15h-1.5A2.68,2.68,0,0,0,14,13.22,3.24,3.24,0,0,0,12.52,15H8.27a2.83,2.83,0,0,0-2.59-2.06c-1.74,0-3.06,2-2.56,4.18A3,3,0,0,0,5,19.33c1.74.57,3.34-.88,3.48-2.86h3.93c.18,1.84,1.56,3.16,3.1,3a3.12,3.12,0,0,0,2.46-3h1.91a.69.69,0,0,0,.62-.75V9A2.78,2.78,0,0,0,18,6ZM5.87,18a.61.61,0,0,1-.19,0,1.61,1.61,0,0,1-1.54-1.7,1.68,1.68,0,0,1,1.35-1.84h.19a1.61,1.61,0,0,1,1.54,1.7A1.7,1.7,0,0,1,5.87,18Zm9.26,0h0a1.68,1.68,0,0,1-1.4-1.86,1.61,1.61,0,0,1,1.55-1.69,1.67,1.67,0,0,1,1.41,1.78A1.67,1.67,0,0,1,15.13,18Z" style="fill:#616161"/><path d="M9.31,6.27A2.29,2.29,0,1,0,6,9.38a2.27,2.27,0,0,0,2.66,0l.44.45c.16.17.35.44.59.48h.08a.41.41,0,0,0,.29-.6,1.48,1.48,0,0,0-.24-.26l-.61-.62A2.33,2.33,0,0,0,9.31,6.27ZM7.39,6h0a1.55,1.55,0,0,1,1.4,1,1.58,1.58,0,0,1-.44,1.7,1.52,1.52,0,0,1-1.78.15A1.54,1.54,0,0,1,7.39,6Z" style="fill:#616161"/><path d="M7.36,6.9a.58.58,0,0,1,.38.17A.86.86,0,0,1,8,7.53,1.07,1.07,0,0,0,8,7.84.31.31,0,0,0,8.23,8h0c.15,0,.29-.13.31-.29a1.57,1.57,0,0,0-.07-.57,1.49,1.49,0,0,0-.59-.79c-.23-.14-.75-.35-.84.11A.37.37,0,0,0,7.36,6.9Z" style="fill:#616161"/></svg>