<svg id="Layer_2" data-name="Layer 2" xmlns="http://www.w3.org/2000/svg" viewBox="0 0 21 21"><path d="M18,6h-2.5V2.3a.69.69,0,0,0-.61-.75H1.18a.69.69,0,0,0-.62.75V15.71a.69.69,0,0,0,.62.75h.63V3H14.22v8.72a4,4,0,0,1,1-.15h.27V7.53H18A1.39,1.39,0,0,1,19.2,9h0v.76H16.71v1.48H19.2V15H17.7A2.67,2.67,0,0,0,14,13.22,3.18,3.18,0,0,0,12.52,15H8.28a2.83,2.83,0,0,0-2.59-2.06C4,13,2.64,15,3.14,17.11A3,3,0,0,0,5,19.33c1.74.57,3.34-.88,3.48-2.86h3.92c.17,1.84,1.55,3.16,3.08,3a3.12,3.12,0,0,0,2.46-3h1.9a.69.69,0,0,0,.62-.75V9A2.77,2.77,0,0,0,18,6ZM5.89,18a.67.67,0,0,1-.2,0,1.61,1.61,0,0,1-1.53-1.7A1.68,1.68,0,0,1,5.5,14.41h.19a1.61,1.61,0,0,1,1.54,1.7A1.71,1.71,0,0,1,5.89,18Zm9.22,0h0a1.68,1.68,0,0,1-1.4-1.86,1.61,1.61,0,0,1,1.55-1.69,1.68,1.68,0,0,1,1.4,1.78A1.67,1.67,0,0,1,15.11,18Z" style="fill:#616161"/><ellipse cx="7.1" cy="7.69" rx="2.53" ry="2.52" style="fill:#fff;stroke:#616161;stroke-miterlimit:2;stroke-width:0.550911247730255px"/><polyline points="5.65 7.49 6.43 8.58 8.54 6.81" style="fill:#fff"/><path d="M5.33,7.68l.78,1.09a.39.39,0,0,0,.59.07L8.54,7.29l.26-.22a.37.37,0,0,0,0-.53.39.39,0,0,0-.53,0L6.43,8.09l-.26.22.59.08L6,7.3a.39.39,0,0,0-.51-.13.37.37,0,0,0-.14.51Z" style="fill:#616161"/></svg>