<svg id="Layer_2" data-name="Layer 2" xmlns="http://www.w3.org/2000/svg" viewBox="0 0 21 21"><path d="M18,6h-2.5V2.3a.69.69,0,0,0-.61-.75H1.16a.69.69,0,0,0-.62.75V15.71a.69.69,0,0,0,.62.75h.63V3H14.23v8.72a4,4,0,0,1,1-.15h.27V7.53H18A1.39,1.39,0,0,1,19.22,9h0v.76h-2.5v1.48h2.5V15H17.71A2.67,2.67,0,0,0,14,13.22,3.2,3.2,0,0,0,12.52,15H8.28a2.84,2.84,0,0,0-2.6-2.06c-1.73,0-3,2-2.55,4.18A3,3,0,0,0,5,19.33c1.74.57,3.34-.88,3.49-2.86h3.92a3,3,0,0,0,3.09,3,3.12,3.12,0,0,0,2.46-3h1.91a.69.69,0,0,0,.62-.75V9A2.78,2.78,0,0,0,18,6ZM5.88,18a.67.67,0,0,1-.2,0,1.63,1.63,0,0,1-1.54-1.7,1.69,1.69,0,0,1,1.35-1.84h.19a1.61,1.61,0,0,1,1.54,1.7A1.7,1.7,0,0,1,5.88,18Zm9.24,0h0a1.69,1.69,0,0,1-1.41-1.86,1.62,1.62,0,0,1,1.56-1.69,1.67,1.67,0,0,1,1.4,1.78A1.67,1.67,0,0,1,15.12,18Z" style="fill:#616161"/><path d="M7.33,8a.19.19,0,0,0-.19.19V9.36a.2.2,0,0,0,.19.19.19.19,0,0,0,.19-.19V8.23A.18.18,0,0,0,7.33,8Z" style="fill:#616161"/><path d="M7.33,7.28a.24.24,0,0,0,0,.48.24.24,0,1,0,0-.48Z" style="fill:#616161"/><path d="M5.12,10.42,7.34,6l.32-.63H6.79L9,9.79l.32.63.43-.75H4.69a.5.5,0,0,0,0,1H9.76a.5.5,0,0,0,.43-.75L8,5.48l-.31-.63a.51.51,0,0,0-.87,0L4.57,9.29l-.31.63C4,10.49,4.84,11,5.12,10.42Z" style="fill:#616161"/></svg>