<svg id="Layer_2" data-name="Layer 2" xmlns="http://www.w3.org/2000/svg" viewBox="0 0 21 21"><path d="M18,6H15.48V2.3a.69.69,0,0,0-.62-.75H1.13A.69.69,0,0,0,.5,2.3V15.71a.7.7,0,0,0,.62.75h.63V3H14.24v8.72a4.08,4.08,0,0,1,1-.15h.27V7.53H18A1.39,1.39,0,0,1,19.25,9h0v.76H16.74v1.48h2.51V15H17.74A2.69,2.69,0,0,0,14,13.22,3.24,3.24,0,0,0,12.53,15H8.27a2.85,2.85,0,0,0-2.61-2.06C3.92,13,2.6,15,3.1,17.11A3,3,0,0,0,5,19.33c1.75.57,3.35-.88,3.5-2.86h3.94a3,3,0,0,0,3.1,3,3.11,3.11,0,0,0,2.47-3h1.91a.69.69,0,0,0,.63-.75V9A2.78,2.78,0,0,0,18,6ZM5.86,18a.67.67,0,0,1-.2,0,1.61,1.61,0,0,1-1.54-1.7,1.69,1.69,0,0,1,1.35-1.84h.19a1.62,1.62,0,0,1,1.55,1.7A1.7,1.7,0,0,1,5.86,18Zm9.28,0h0a1.68,1.68,0,0,1-1.4-1.86,1.62,1.62,0,0,1,1.56-1.69,1.67,1.67,0,0,1,1.41,1.78A1.68,1.68,0,0,1,15.14,18Z" style="fill:#616161"/><ellipse cx="6.81" cy="7.66" rx="2.53" ry="2.53" style="fill:#fff;stroke:#616161;stroke-miterlimit:2;stroke-width:0.55190441387154px"/><line x1="5.83" y1="8.61" x2="7.86" y2="6.72" style="fill:#fff"/><path d="M6.1,8.87,7.88,7.22,8.13,7a.38.38,0,0,0,0-.54.4.4,0,0,0-.54,0L5.82,8.11l-.25.23a.37.37,0,1,0,.53.53Z" style="fill:#616161"/><line x1="7.79" y1="8.61" x2="5.76" y2="6.72" style="fill:#fff"/><path d="M8.05,8.34,6.28,6.68,6,6.45a.4.4,0,0,0-.54,0,.38.38,0,0,0,0,.54L7.27,8.64l.25.23a.37.37,0,1,0,.53-.53Z" style="fill:#616161"/></svg>