<svg id="Layer_1" data-name="Layer 1" xmlns="http://www.w3.org/2000/svg" viewBox="0 0 668 519"><path d="M228.28,419.87c.21,29.57-17,56.35-43.58,67.82A69.88,69.88,0,0,1,107,472.21,74.37,74.37,0,0,1,91.3,392.59c11-27.35,37-45.19,65.8-45.19a70,70,0,0,1,50.22,21.11A73.7,73.7,0,0,1,228.28,419.87Z" style="fill:none;stroke:#616161;stroke-linecap:round;stroke-linejoin:round;stroke-width:50px"/><path d="M567.38,419.87c.21,29.57-17,56.35-43.57,67.82a69.87,69.87,0,0,1-77.74-15.48,74.37,74.37,0,0,1-15.67-79.62c11-27.35,37-45.19,65.81-45.19a70,70,0,0,1,50.22,21.11A73.69,73.69,0,0,1,567.38,419.87Z" style="fill:none;stroke:#616161;stroke-linecap:round;stroke-linejoin:round;stroke-width:50px"/><path d="M416.68,444.87a25,25,0,0,0,0-50Zm-188.5-50a25,25,0,1,0,0,50Zm163.5,25a25,25,0,0,0,50,0Zm50-175.57a25,25,0,0,0-50,0Zm-25,150.57a25,25,0,1,0,0,50Zm8.32,50a25,25,0,0,0,0-50Zm142.24-50a25,25,0,1,0,.22,50Zm75.51-53,25-.11a25.73,25.73,0,0,0-.39-4.29Zm7.16-101.93a25,25,0,1,0-49.22,8.81ZM416.65,63.24a25,25,0,0,0,0,50ZM536,88.24v25h.5Zm75.36,78-25-.71a24.89,24.89,0,0,0,.38,5.1ZM600.65,248.7a25,25,0,0,0,49.26-8.8Zm-159-160.46a25,25,0,1,0-50,0Zm-50,156.06a25,25,0,1,0,50,0Zm0-156.06a25,25,0,1,0,50,0Zm25-26.67h25v-.18Zm-35.49-35.9v25h.17Zm-320.28,0-.24,25h.24ZM25.25,61.5l-25-.22v.22Zm0,322.5H.25v.23Zm35.59,35.83v-25H60.6Zm25.09,25a25,25,0,0,0,0-50ZM416.68,219.3a25,25,0,0,0,0,50Zm208.65,50a25,25,0,0,0,0-50ZM416.68,394.87H228.18v50h188.5Zm25,25V244.3h-50V419.87Zm-25,25H425v-50h-8.32Zm150.78,0a99.78,99.78,0,0,0,71.33-30.63l-36-34.74a49.78,49.78,0,0,1-35.59,15.37Zm71.33-30.63a103.71,103.71,0,0,0,29-72.52l-50,.23a53.68,53.68,0,0,1-14.92,37.55Zm28.57-76.81L649.91,239.9l-49.22,8.81,17.45,97.53ZM416.65,113.24H536v-50H416.65Zm119.81,0A48,48,0,0,1,572,128.05l36-34.73a98,98,0,0,0-72.48-30.08ZM572,128.05a51.89,51.89,0,0,1,14.37,37.51l50,1.42a101.87,101.87,0,0,0-28.38-73.66Zm14.75,42.61,13.94,78,49.26-8.8-14-78ZM391.65,88.24l0,156.06h50V88.24Zm50,0V61.57h-50l0,26.67Zm0-26.85C441.38,28.23,414.82.44,381,.67l.33,50c5.07,0,10.28,4.32,10.33,11.08ZM381.12.67H60.84v50H381.12Zm-320,0a59.8,59.8,0,0,0-43,17.74L53.55,53.64a9.79,9.79,0,0,1,7.05-3Zm-43,17.74A61.59,61.59,0,0,0,.25,61.28l50,.45a11.61,11.61,0,0,1,3.3-8.09ZM.25,61.5V384h50V61.5Zm0,322.73a61.57,61.57,0,0,0,17.82,42.86l35.48-35.23a11.59,11.59,0,0,1-3.3-8.08Zm17.82,42.86a59.76,59.76,0,0,0,43,17.74l-.48-50a9.8,9.8,0,0,1-7.05-3Zm42.77,17.74H85.93v-50H60.84ZM416.68,269.3H625.33v-50H416.68Z" style="fill:#616161"/></svg>