<svg id="Layer_3" data-name="Layer 3" xmlns="http://www.w3.org/2000/svg" viewBox="0 0 28 28"><title>truck</title><path d="M24.25,7.49H20.94V2.16a1,1,0,0,0-.82-1.08H1.91a1,1,0,0,0-.82,1.08V21.48a1,1,0,0,0,.82,1.08h.84V3.17H19.26V15.73a5,5,0,0,1,1.33-.22H21V9.7h3.3a2,2,0,0,1,1.62,2.12h0v1.09H22.56V15h3.32v5.42h-2a3.54,3.54,0,0,0-4.31-2.8,3.37,3.37,0,0,0-.62.24,4.6,4.6,0,0,0-2,2.56H11.35a3.83,3.83,0,0,0-3.43-3c-2.31,0-4.06,2.88-3.39,6A4.24,4.24,0,0,0,7,26.7c2.31.82,4.43-1.27,4.61-4.12h5.21c.24,2.65,2.07,4.55,4.11,4.32a4.42,4.42,0,0,0,3.26-4.32h2.53a1,1,0,0,0,.82-1.08V11.82A3.93,3.93,0,0,0,24.25,7.49ZM8.17,24.78a.75.75,0,0,1-.25,0,2.25,2.25,0,0,1-2-2.41v0a2.4,2.4,0,0,1,1.79-2.65h.25a2.25,2.25,0,0,1,2,2.41v0A2.43,2.43,0,0,1,8.17,24.78Zm12.28,0h0a2.4,2.4,0,0,1-1.86-2.68,2.26,2.26,0,0,1,2-2.43h0a2.37,2.37,0,0,1,1.87,2.56A2.35,2.35,0,0,1,20.45,24.78Z" style="fill:#616161"/></svg>