<svg id="Layer_3" data-name="Layer 3" xmlns="http://www.w3.org/2000/svg" viewBox="0 0 28 28"><path d="M23.13,11.4a1.27,1.27,0,0,0,2.44-.68ZM21.55,6.09l.92-.87h0ZM15.83,2.86l.26-1.24h0Zm-6.45.67L8.87,2.37h0Zm-5,4.35L3.29,7.2h0ZM5.75,22.79l.93-.86h0Zm14.1,1.47.73,1h0Zm5.29-4.84a1.27,1.27,0,0,0-2.36-.92Zm-2-8.67a1.26,1.26,0,0,0,2.45.63Zm3.62-4a1.26,1.26,0,0,0-2.45-.63ZM24,12.28a1.26,1.26,0,0,0,.69-2.43ZM20.33,8.61a1.27,1.27,0,0,0-.69,2.44Zm-6.71,2.45a1.27,1.27,0,0,0-2.53,0Zm-1.27,5.07H11.09a1.26,1.26,0,0,0,1.26,1.26Zm4.94,1.26a1.27,1.27,0,1,0,0-2.53Zm8.28-6.67a13.25,13.25,0,0,0-3.1-5.5L20.63,7a10.8,10.8,0,0,1,2.5,4.45Zm-3.1-5.5a12.18,12.18,0,0,0-6.38-3.6l-.52,2.47A9.8,9.8,0,0,1,20.63,7Zm-6.38-3.6a11.85,11.85,0,0,0-7.22.75l1,2.32a9.32,9.32,0,0,1,5.68-.6Zm-7.22.75A12.69,12.69,0,0,0,3.29,7.2L5.44,8.55A10,10,0,0,1,9.89,4.69ZM3.29,7.2A13.59,13.59,0,0,0,4.83,23.65l1.85-1.72A11.05,11.05,0,0,1,5.44,8.55ZM4.83,23.65a12,12,0,0,0,15.75,1.64l-1.46-2.06a9.45,9.45,0,0,1-12.44-1.3Zm15.75,1.64a12.9,12.9,0,0,0,4.56-5.87l-2.36-.92a10.4,10.4,0,0,1-3.66,4.73Zm5-13.91,1.17-4.61-2.45-.63-1.17,4.61Zm-.88-1.53L20.33,8.61l-.69,2.44L24,12.28Zm-13.6,1.21v5.07h2.53V11.06Zm1.26,6.33h4.94V14.86H12.35Z" style="fill:#616161"/></svg>