<svg id="Layer_1" data-name="Layer 1" xmlns="http://www.w3.org/2000/svg" xmlns:xlink="http://www.w3.org/1999/xlink" viewBox="0 0 790.8 391"><defs><linearGradient id="linear-gradient" x1="31.1" y1="181.69" x2="402.63" y2="181.69" gradientTransform="matrix(1, 0, 0, -1, -18.1, 377.19)" gradientUnits="userSpaceOnUse"><stop offset="0" stop-color="#fff"/><stop offset="0.04" stop-color="#f5f5f5"/><stop offset="0.44" stop-color="#d2d2d2"/></linearGradient><linearGradient id="linear-gradient-2" x1="241.57" y1="27.02" x2="319.73" y2="27.02" gradientTransform="matrix(1, 0, 0, -1, -18.1, 377.19)" gradientUnits="userSpaceOnUse"><stop offset="0" stop-color="#fff"/><stop offset="0.04" stop-color="#f5f5f5"/><stop offset="0.57" stop-color="#d2d2d2"/></linearGradient><linearGradient id="linear-gradient-3" x1="761" y1="220.59" x2="808.9" y2="220.59" xlink:href="#linear-gradient"/><linearGradient id="linear-gradient-4" x1="366.69" y1="142.44" x2="917.62" y2="142.44" xlink:href="#linear-gradient-2"/><linearGradient id="linear-gradient-5" x1="750.4" y1="176.19" x2="776.4" y2="176.19" gradientTransform="matrix(1, 0, 0, -1, 0, 391.89)" xlink:href="#linear-gradient"/><linearGradient id="linear-gradient-6" x1="164.2" y1="135.84" x2="582.61" y2="135.84" gradientTransform="matrix(1, 0, 0, -1, -18.1, 377.19)" gradientUnits="userSpaceOnUse"><stop offset="0" stop-color="#fff"/><stop offset="0.04" stop-color="#f5f5f5"/><stop offset="0.58" stop-color="#d2d2d2"/></linearGradient></defs><path d="M195.9,289.9q-74,0-73.9-95.2,0-94.2,73.9-94.1A58.74,58.74,0,0,1,233,113.3a8,8,0,0,0,9.2.5l76-47.6a8,8,0,0,0,2.55-11,8.43,8.43,0,0,0-.55-.78,129.33,129.33,0,0,0-14.5-15.1Q261.9,0,194.5,0,109.75,0,54.2,57.5C18.1,95,0,140.9,0,195.6S18.3,296.5,54.8,334q55.65,57,139.7,57,67.8,0,111.8-40.2c13.7-12.6,24.3-26.6,31.5-42a7.92,7.92,0,0,0-3.3-10.3l-73.8-42.1a8,8,0,0,0-10.6,2.5C235.8,279.5,217.7,289.9,195.9,289.9Z" transform="translate(0 0)" style="fill:url(#linear-gradient)"/><path d="M265.7,311.22A39.08,39.08,0,1,0,301.5,347,39.08,39.08,0,0,0,265.7,311.22Zm4.2,12a27.8,27.8,0,0,0-8.7,54.2,27.83,27.83,0,0,1-5.2-55.1,27.47,27.47,0,0,1,14.3.9Z" transform="translate(0 0)" style="fill:url(#linear-gradient-2)"/><path d="M780.7,145.6H753c-5.6,0-10.1,4.9-10.1,11s4.5,11,10.1,11h27.7c5.6,0,10.1-4.9,10.1-11S786.3,145.6,780.7,145.6Z" transform="translate(0 0)" style="fill:url(#linear-gradient-3)"/><path d="M740.2,286.3h-9.5c-7,0-13.1-6.3-13.2-14.2-.1-8.1,5.6-14.8,12.8-14.8H740c7.1,0,12.9-6.7,12.7-14.8s-6.2-14.2-13.2-14.2H677.3c-6.9-.2-12.5-6.6-12.5-14.5h0c0-8,5.7-14.5,12.8-14.5h60.1v-.1h6c7.1,0,12.8-6.5,12.8-14.5h0c0-8-5.7-14.5-12.8-14.5H693.1c-7,0-13.1-6.3-13.2-14.2-.1-8.1,5.6-14.8,12.8-14.8h12.6a16.21,16.21,0,0,0,2.2.2h45.6c7.1,0,12.8-6.5,12.8-14.5h0c0-8-5.7-14.5-12.8-14.5H707.4a3.07,3.07,0,0,0-1,.1H365c-11.3,0-20.5,10.4-20.5,23.3V351.4c0,3.1,2.2,5.7,5,5.7h89.9V171.4c0-5.5,3.9-10,8.8-10h41.7c4.9,0,8.8,4.5,8.8,10V357.1h72.1V172.9c0-5.5,3.9-10,8.8-10h41.7c4.9,0,8.8,4.5,8.8,10V357.1H709c12.2,0,22.1-10.2,22.1-22.8V315.4h8.8c7,0,13.1-6.3,13.2-14.2C753.1,293,747.4,286.3,740.2,286.3Z" transform="translate(0 0)" style="fill:url(#linear-gradient-4)"/><circle cx="763.4" cy="215.7" r="13" style="fill:url(#linear-gradient-5)"/><path d="M338,294.6V141.4c0-.4,0-1.8-2.5-4.1a18,18,0,0,0-12.1-4.7l-124-.9c-3.4.2-19.7,1.4-30.8,14.6-4.7,5.7-6.8,14.2-7.9,18.2v9.9h25.7a9.5,9.5,0,0,0,9.4-9.6h0c.1-3.5,3.2-9,7-9H282c8.5,0,15.4,6.4,15.4,14.3v31l-1.5,1.5H217.4c-43.5,0-70.6,32.7-70.6,76.2h.1l-.8,56.9c-.1,8.4,7.2,15.3,16.2,15.3h59.3a43.8,43.8,0,0,1,87.6,0h23.5a5.34,5.34,0,0,0,5.3-5.3V294.6ZM197.9,325.7h-26a1.4,1.4,0,0,1,0-2.8h26a1.45,1.45,0,0,1,1.5,1.4h0a1.38,1.38,0,0,1-1.38,1.4Z" transform="translate(0 0)" style="fill:url(#linear-gradient-6)"/></svg>