<svg id="Layer_2" data-name="Layer 2" xmlns="http://www.w3.org/2000/svg" viewBox="0 0 21 21"><path id="Path_362" data-name="Path 362" d="M8.75,15.07v-6H8a14,14,0,0,0-1.49.9v.78C7,10.48,7.64,10.07,8,9.87H8v5.18h.77Zm1.38-1.47A1.77,1.77,0,0,0,12,15.18c1.42,0,2.25-1.2,2.25-3.22,0-2.18-.9-3-2.2-3A2,2,0,0,0,10,10.83V11a1.86,1.86,0,0,0,1.69,2h.18a1.53,1.53,0,0,0,1.55-.89h0c0,1.48-.51,2.44-1.46,2.44a1.11,1.11,0,0,1-1.19-.9h-.68ZM13.45,11a1.33,1.33,0,0,1-1.31,1.34h0a1.25,1.25,0,0,1-1.3-1.18V11A1.26,1.26,0,0,1,12,9.67h.14a1.25,1.25,0,0,1,1.31,1.18.74.74,0,0,1,0,.21Z" style="fill:#fcc400"/><path d="M18,2.44H16.73V2a.59.59,0,0,0-.62-.56h0a.59.59,0,0,0-.62.56h0v.43H5.5V2a.59.59,0,0,0-.62-.56h0A.58.58,0,0,0,4.29,2h0v.43H3A2.39,2.39,0,0,0,.51,4.71V17.23A2.4,2.4,0,0,0,3,19.5H18a2.38,2.38,0,0,0,2.47-2.27V4.71A2.38,2.38,0,0,0,18,2.44Zm1.22,14.8A1.18,1.18,0,0,1,18,18.37H3a1.19,1.19,0,0,1-1.25-1.13h0V5.92H19.23Z" style="fill:#fcc400"/></svg>