<svg id="Layer_2" data-name="Layer 2" xmlns="http://www.w3.org/2000/svg" viewBox="0 0 19.26 13.13"><path d="M16.37,5.69a4,4,0,0,0-.09-.5,5.55,5.55,0,0,0,3-5.07V0h-.44a5.45,5.45,0,0,0-4.43,2.5,4.34,4.34,0,0,0-2.55-.71,5.69,5.69,0,0,0-.83.07A4.64,4.64,0,0,0,7.74.48H7.67a4.51,4.51,0,0,0-4.47,4A4.25,4.25,0,0,0,0,8.69a4.24,4.24,0,0,0,4,4.43H14.53a3.84,3.84,0,0,0,2.67-1.3,3.88,3.88,0,0,0,1-2.82A4,4,0,0,0,16.37,5.69Zm-1.91,6.4H4.07A3.21,3.21,0,0,1,1,8.72,3.25,3.25,0,0,1,3.76,5.4l.43-.1V4.88A3.44,3.44,0,0,1,7.61,1.52h.11a3.7,3.7,0,0,1,2.71,1.23l.21.24.3-.07a3.46,3.46,0,0,1,.84-.11h.16a3.61,3.61,0,0,1,2,.65,5.47,5.47,0,0,0-.39,2.23v.12H14a4.93,4.93,0,0,0,1.32-.22,2.09,2.09,0,0,1,0,.43v.3l.24.12a3,3,0,0,1,1.52,2.62,2.91,2.91,0,0,1-.73,2.08A2.83,2.83,0,0,1,14.46,12.09Z" style="fill:#fcc400"/><path d="M8.63,7.27V7.15a1.38,1.38,0,0,0-.4-1,1.54,1.54,0,0,0-1.05-.42h0a1.61,1.61,0,0,0-1.33.55,2.16,2.16,0,0,0-.45,1.4v.14A2.1,2.1,0,0,0,5.82,9.2,1.63,1.63,0,0,0,7,9.78h.13a1.64,1.64,0,0,0,1.08-.4,1.1,1.1,0,0,0,.46-.94V8.32H7.76v.13a.53.53,0,0,1-.19.4.73.73,0,0,1-1.06-.19,1.67,1.67,0,0,1-.27-.83V7.69a1.61,1.61,0,0,1,.27-.9h0a.66.66,0,0,1,.61-.34.68.68,0,0,1,.64.7v.13Z" style="fill:#fcc400"/><path d="M10.82,5.67a1.63,1.63,0,0,0-1.35.59A2.2,2.2,0,0,0,9,7.69v.07A2.15,2.15,0,0,0,9.48,9.2a1.64,1.64,0,0,0,1.24.59h.1A1.72,1.72,0,0,0,12.1,9.2a2.2,2.2,0,0,0,.47-1.43V7.7a2.16,2.16,0,0,0-.45-1.45A1.64,1.64,0,0,0,10.82,5.67ZM10,7.74a1.65,1.65,0,0,1,.22-.93.79.79,0,0,1,.64-.33.75.75,0,0,1,.43.13.85.85,0,0,1,.19.19,1.74,1.74,0,0,1,.24.94v.07a1.73,1.73,0,0,1-.23.92.8.8,0,0,1-1.09.18.88.88,0,0,1-.17-.16A1.64,1.64,0,0,1,10,7.81Z" style="fill:#fcc400"/><path d="M13.56,9.82h0l.23-.34a.8.8,0,0,0,.09-.3.54.54,0,0,0-.17-.42.63.63,0,0,0-.42-.17h0a.68.68,0,0,0-.47.19.62.62,0,0,0-.18.43v.12h.47V9.21a.25.25,0,0,1,.06-.14s.06-.05.13-.05.07,0,.09,0a.22.22,0,0,1,0,.13v.14a1.74,1.74,0,0,1-.18.22l-.56.66v.33h1.25v-.42h-.6Z" style="fill:#fcc400"/></svg>