<svg id="Layer_2" data-name="Layer 2" xmlns="http://www.w3.org/2000/svg" viewBox="0 0 21 21"><path d="M17.67,19.47H3.17A2.56,2.56,0,0,1,.49,17.05V4A2.56,2.56,0,0,1,3.14,1.53h7.28a.59.59,0,0,1,.62.56h0a.59.59,0,0,1-.62.56H3.17A1.38,1.38,0,0,0,1.73,4V17.1a1.39,1.39,0,0,0,1.44,1.3h14.5a1.39,1.39,0,0,0,1.44-1.3V10.5a.59.59,0,0,1,.62-.56h0a.59.59,0,0,1,.62.56h0v6.55A2.56,2.56,0,0,1,17.67,19.47Z" style="fill:#fcc400"/><path d="M6.2,15.45a1.11,1.11,0,0,1-1-.69.86.86,0,0,1,0-.59L6,11.56a2.12,2.12,0,0,1,.66-1l9.07-8.23h0a3,3,0,0,1,2.84-.59,2.73,2.73,0,0,1,1.92,2.33,1.73,1.73,0,0,1-.59,1.51l-9.37,8.48a2.69,2.69,0,0,1-1.12.59l-2.9.77A1.63,1.63,0,0,1,6.2,15.45ZM16.58,3.09,7.51,11.33a1.12,1.12,0,0,0-.35.53l-.79,2.45,2.7-.72a1.52,1.52,0,0,0,.6-.32l9.38-8.48a.71.71,0,0,0,.24-.6,1.64,1.64,0,0,0-1.12-1.43A1.67,1.67,0,0,0,16.58,3.09Z" style="fill:#fcc400"/></svg>