<svg id="Layer_2" data-name="Layer 2" xmlns="http://www.w3.org/2000/svg" viewBox="0 0 21 21"><path d="M19.9,14.72h-.62V8.65a.58.58,0,0,0-.59-.59H15.2V2a.6.6,0,0,0-.61-.59H6.45A.6.6,0,0,0,5.84,2h0V8.06H2.35a.61.61,0,0,0-.59.59v6.07H1.13a.62.62,0,0,0-.63.58h0v3.53a.61.61,0,0,0,.62.59H3.58a.62.62,0,0,0,.61-.59h0v-.59H8.67v.59a.62.62,0,0,0,.62.59h2.45a.62.62,0,0,0,.61-.59h0v-.59h4.49v.59a.61.61,0,0,0,.6.59h2.44a.62.62,0,0,0,.62-.58h0V15.32A.62.62,0,0,0,19.9,14.72ZM18.06,9.24v5.48H11.12V9.24ZM7,2.58h7V8.06H7ZM3,9.24H9.9v5.48H3Zm16.32,9H18.06v-.59a.61.61,0,0,0-.62-.58h-5.7a.61.61,0,0,0-.62.59h0v.59H9.9v-.6a.61.61,0,0,0-.61-.58H3.58a.61.61,0,0,0-.62.59H3v.59H1.76V15.9H19.28Z" style="fill:#fcc400"/></svg>