<svg id="Layer_2" data-name="Layer 2" xmlns="http://www.w3.org/2000/svg" viewBox="0 0 21 21"><path d="M.73,8.84.5,9v9.4a1.18,1.18,0,0,0,1.23,1.1H8.38a.11.11,0,0,0,.12-.1h0V15A1.19,1.19,0,0,1,9,14c1.65-1.15,3.48-.11,3.48,1.31V19.4a.11.11,0,0,0,.11.11h6.66a1.18,1.18,0,0,0,1.23-1.1V9l-.23-.18-9.34-7.2a.72.72,0,0,0-.86,0m0,0L.73,8.84h0M19.05,18.3H14a.13.13,0,0,1-.12-.11V15a2.38,2.38,0,0,0-1.21-2.06C10,11.35,7.17,13,7.17,15.3v2.89a.13.13,0,0,1-.12.11H2a.13.13,0,0,1-.12-.11V9.63a.14.14,0,0,1,0-.09L10.42,3a.15.15,0,0,1,.16,0l8.54,6.59a.11.11,0,0,1,.05.09v8.56A.11.11,0,0,1,19.05,18.3Z" style="fill:#fcc400"/></svg>