<svg id="Layer_2" data-name="Layer 2" xmlns="http://www.w3.org/2000/svg" xmlns:xlink="http://www.w3.org/1999/xlink" viewBox="0 0 28 28"><defs><clipPath id="clip-path"><rect width="28" height="28" style="fill:none"/></clipPath></defs><title>home</title><g style="clip-path:url(#clip-path)"><path d="M2.33,14.24c0-2.67,0-4,.61-5.11S4.65,7.33,6.86,6L9.2,4.51c2.34-1.45,3.51-2.18,4.8-2.18s2.46.73,4.8,2.18L21.14,6C23.35,7.33,24.46,8,25.06,9.13s.61,2.44.61,5.11V16c0,4.55,0,6.83-1.37,8.24s-3.57,1.41-8,1.41H11.67c-4.4,0-6.6,0-8-1.41S2.33,20.56,2.33,16Z" style="fill:none;stroke:#fdc309;stroke-width:2.75px"/><path d="M17.5,21h-7" style="fill:none;stroke:#fdc309;stroke-linecap:round;stroke-width:3.75px"/></g></svg>