<svg id="Layer_2" data-name="Layer 2" xmlns="http://www.w3.org/2000/svg" viewBox="0 0 28 28"><title>location</title><path d="M14,13.22a2.53,2.53,0,0,1-2.62-2.43A2.53,2.53,0,0,1,14,8.36a2.53,2.53,0,0,1,2.63,2.43A2.53,2.53,0,0,1,14,13.22Zm0-6.48a4.22,4.22,0,0,0-4.37,4.05A4.22,4.22,0,0,0,14,14.84a4.22,4.22,0,0,0,4.38-4.05A4.22,4.22,0,0,0,14,6.74Zm0,17.83c-1.46,0-8.75-10.39-8.75-13.78,0-4.48,3.92-8.11,8.75-8.11s8.75,3.63,8.75,8.11C22.75,14.13,15.43,24.58,14,24.57ZM14,1.06c-5.8,0-10.5,4.36-10.5,9.73C3.5,14.86,12.25,27,14,27S24.5,14.8,24.5,10.79C24.5,5.42,19.8,1.06,14,1.06Z" style="fill:#fdc309"/></svg>