<svg id="Layer_2" data-name="Layer 2" xmlns="http://www.w3.org/2000/svg" viewBox="0 0 21 21"><path d="M17.79,15a8.6,8.6,0,1,1-.34-9.6l.07.1h1.87l-.24-.38A10.24,10.24,0,0,0,5.06,1.76a10.25,10.25,0,0,0,5.36,19,10.16,10.16,0,0,0,5.33-1.5,10.26,10.26,0,0,0,3.72-4l.19-.37h-1.8Z" style="fill:#fcc400"/><path d="M20.45,10.45l0,0v0l-3.2-2.29a.21.21,0,0,0-.26,0,.17.17,0,0,0,0,.1V9.76H9.85a.18.18,0,0,0-.18.16v1.15a.18.18,0,0,0,.18.16h7.08v1.56a.17.17,0,0,0,.19.16.21.21,0,0,0,.11,0l3.2-2.29A.16.16,0,0,0,20.45,10.45Z" style="fill:#fcc400"/></svg>