<svg id="Layer_3" data-name="Layer 3" xmlns="http://www.w3.org/2000/svg" viewBox="0 0 20.3 23"><path d="M11.2,17.7v1.6a.6.6,0,0,1-.1.4c0,.1-.1.2-.2.3s-.2.2-.3.2-.3.1-.4.1a.6.6,0,0,1-.4-.1c-.1-.1-.2-.1-.3-.2s-.2-.2-.2-.3-.1-.2-.1-.4V17.6a4.38,4.38,0,0,1-1.9-.7,3.16,3.16,0,0,1-1.4-1.4,1.42,1.42,0,0,1-.2-.6.6.6,0,0,1,.1-.4c.1-.1.1-.2.2-.3s.2-.2.3-.2.2-.1.4-.1a.6.6,0,0,1,.4.1c.1.1.2.1.3.2a5.22,5.22,0,0,0,1.9,1.4V11.8c-2-.8-3-1.9-3-3.4a3.1,3.1,0,0,1,.9-2.2A3.33,3.33,0,0,1,9.3,5.1V3.6a.6.6,0,0,1,.1-.4c0-.1.1-.2.2-.3s.2-.2.3-.2.3-.1.4-.1a.6.6,0,0,1,.4.1c.1,0,.2.1.3.2s.1.2.1.4.1.2.1.4V5.3a4.42,4.42,0,0,1,1.6.6A4.26,4.26,0,0,1,14,7a1.42,1.42,0,0,1,.2.6.6.6,0,0,1-.1.4c0,.1-.1.2-.2.3s-.2.2-.3.2-.2.1-.4.1a.6.6,0,0,1-.4-.1c-.1-.1-.2-.1-.3-.2a4.51,4.51,0,0,0-1.4-1v3.3l.4.1c1.9.7,3.1,1.8,3.1,3.5a3.49,3.49,0,0,1-1,2.4A3.19,3.19,0,0,1,11.2,17.7Zm-2-8V7.3a2.65,2.65,0,0,0-.6.5,1.2,1.2,0,0,0,0,1.4A2.65,2.65,0,0,0,9.2,9.7Zm3.3,4.6c0-.7-.5-1.1-1.3-1.5v3a1.05,1.05,0,0,0,.9-.5A1.78,1.78,0,0,0,12.5,14.3Z" style="fill:#fdc309"/><path d="M15.9.6H4.4A3.19,3.19,0,0,0,1.7,2,5.43,5.43,0,0,0,.5,5.4V17.5a6,6,0,0,0,1.1,3.4,3.19,3.19,0,0,0,2.7,1.4H15.8a3.19,3.19,0,0,0,2.7-1.4,6,6,0,0,0,1.1-3.4V5.4A6,6,0,0,0,18.5,2,3.14,3.14,0,0,0,15.9.6Z" style="fill:none;stroke:#fcc400;stroke-miterlimit:10;stroke-width:1.2000000476837158px"/></svg>