<svg id="Layer_1" data-name="Layer 1" xmlns="http://www.w3.org/2000/svg" viewBox="0 0 28 28"><title>my_shipments</title><path d="M7.32,19.29H9.71a1.22,1.22,0,0,1,1.18,1.12v2.71a1.24,1.24,0,0,1-1.06,1.26H7.32a1.22,1.22,0,0,1-1.18-1.12V20.55a1.24,1.24,0,0,1,1.06-1.26Zm14.29,1.26a1.26,1.26,0,0,1,0,2.53H14.48a1.26,1.26,0,0,1,0-2.53Zm-11.91,0H7.32v2.53H9.71ZM9.7,13a1.23,1.23,0,0,1,1.19,1.26v2.53A1.23,1.23,0,0,1,9.7,18H7.32a1.23,1.23,0,0,1-1.19-1.26V14.24A1.23,1.23,0,0,1,7.32,13Zm11.91,1.26a1.27,1.27,0,0,1,.14,2.52H14.48a1.27,1.27,0,0,1-.14-2.52h7.27Zm-11.91,0H7.32v2.53H9.71ZM21.63,7.92a1.27,1.27,0,0,1,.14,2.52H14.48a1.27,1.27,0,0,1-.14-2.52ZM9.71,6.7A1.23,1.23,0,0,1,10.91,8h0v2.53a1.23,1.23,0,0,1-1.2,1.26H7.32a1.23,1.23,0,0,1-1.18-1.26V8A1.23,1.23,0,0,1,7.32,6.7ZM9.71,8H7.32v2.54H9.71Z" style="fill:#fdc309"/><path d="M23.87,1H8.25m0,0H5.12A3.31,3.31,0,0,0,2,4.47V23.65a3.31,3.31,0,0,0,3.12,3.47H23.87A3.31,3.31,0,0,0,27,23.65V4.47A3.31,3.31,0,0,0,23.87,1m1.87,22.15A1.66,1.66,0,0,1,24.28,25H5.52a1.61,1.61,0,0,1-1.65-1.62V5.88H25.79Z" style="fill:#fcc400"/></svg>