<svg id="Layer_1" data-name="Layer 1" xmlns="http://www.w3.org/2000/svg" viewBox="0 0 28 28"><title>my_shipments</title><path d="M4,19.61H7.54a1.8,1.8,0,0,1,1.75,1.65v4a1.83,1.83,0,0,1-1.56,1.86H4a1.8,1.8,0,0,1-1.75-1.65v-4a1.83,1.83,0,0,1,1.56-1.86Zm21.13,1.87a1.87,1.87,0,0,1,0,3.74H14.59a1.87,1.87,0,0,1,0-3.74Zm-17.61,0H4v3.74H7.54Zm0-11.21a1.82,1.82,0,0,1,1.76,1.87v3.74a1.82,1.82,0,0,1-1.76,1.87H4a1.82,1.82,0,0,1-1.76-1.87V12.14A1.82,1.82,0,0,1,4,10.27Zm17.61,1.87a1.88,1.88,0,0,1,.21,3.72H14.59a1.88,1.88,0,0,1-.21-3.72H25.16Zm-17.61,0H4v3.74H7.54ZM25.16,2.8a1.82,1.82,0,0,1,1.76,1.87,1.83,1.83,0,0,1-1.56,1.86H14.59a1.82,1.82,0,0,1-1.76-1.87,1.83,1.83,0,0,1,1.56-1.86H25.16ZM7.54,1A1.82,1.82,0,0,1,9.31,2.89V6.63A1.82,1.82,0,0,1,7.54,8.49H4A1.82,1.82,0,0,1,2.26,6.63V2.89A1.82,1.82,0,0,1,4,1Zm0,1.87H4V6.63H7.54Z" style="fill:#fdc309"/></svg>