<svg id="Layer_1" data-name="Layer 1" xmlns="http://www.w3.org/2000/svg" viewBox="0 0 22.64 23"><path d="M5.15,15.66H7.22a1,1,0,0,1,1,1V19a1.07,1.07,0,0,1-.92,1.09H5.15a1.05,1.05,0,0,1-1-1V16.75a1.07,1.07,0,0,1,.92-1.09Zm12.38,1.09a1.1,1.1,0,1,1,0,2.19H11.35a1.1,1.1,0,0,1,0-2.19h6.18Zm-10.32,0H5.15v2.19H7.22Zm0-6.54a1.06,1.06,0,0,1,1,1.09v2.19a1.07,1.07,0,0,1-1,1H5.15a1.06,1.06,0,0,1-1-1.09V11.28a1.06,1.06,0,0,1,1-1.07ZM17.53,11.3a1.11,1.11,0,0,1,1,1.16,1.1,1.1,0,0,1-.92,1h-6.3a1.09,1.09,0,0,1-1-1.16,1.11,1.11,0,0,1,.91-1Zm-10.32,0H5.15v2.19H7.22ZM17.55,5.81A1.1,1.1,0,0,1,17.67,8H11.35a1.1,1.1,0,0,1-.12-2.18ZM7.22,4.75a1.06,1.06,0,0,1,1,1.09v0h0V8.07a1.06,1.06,0,0,1-1,1.09H5.15a1.06,1.06,0,0,1-1-1.09V5.88a1.06,1.06,0,0,1,1-1.13H7.22Zm0,1.13H5.15v2.2H7.22Z" style="fill:#fdc309"/><path d="M19,.18H5.68m.2,0H3.11a3.18,3.18,0,0,0-2.93,3V19.81a3.18,3.18,0,0,0,2.93,3H19.67a2.9,2.9,0,0,0,2.77-3V3.19a2.9,2.9,0,0,0-2.77-3m.91,19.2A1.44,1.44,0,0,1,19.35,21h-16A1.38,1.38,0,0,1,2,19.62V3.86H20.62Z" style="fill:#fcc400"/></svg>