<svg id="Layer_2" data-name="Layer 2" xmlns="http://www.w3.org/2000/svg" viewBox="0 0 21 21"><path d="M11,8.94H1.92c-.65,0-1.18.77-1.18,1.72h0v6.93c0,.94.53,1.71,1.18,1.72H11c.66,0,1.18-.77,1.18-1.72V10.66C12.22,9.71,11.69,8.94,11,8.94Zm.54,8.65c0,.42-.24.77-.54.77H1.92c-.29,0-.53-.35-.53-.77V14.18H11.57Zm0-4.36H1.39V12h2c.18,0,.33-.21.33-.47S3.53,11,3.35,11h-2v-.34c0-.43.24-.77.54-.77H11c.3,0,.54.34.54.77V11H4.47c-.18,0-.32.21-.32.48s.14.47.32.47h7.1Z" style="fill:#fcc400;stroke:#fcc400;stroke-miterlimit:10;stroke-width:0.31893759965896606px"/><path d="M19.93,1.69h-15c-.2,0-.36.2-.38.48V7.73c0,.28.16.5.36.5s.36-.17.38-.45V5.54c1.11-.13,2-1.31,2.27-2.89h10a3.06,3.06,0,0,0,2,2.89v4a3.09,3.09,0,0,0-2,2.91H13.05c-.18,0-.3.27-.28.53a.46.46,0,0,0,.28.42h6.88c.18,0,.33-.21.33-.47h0V2.17C20.26,1.9,20.11,1.69,19.93,1.69ZM5.28,4.58V2.65H6.79A2.26,2.26,0,0,1,5.28,4.58ZM19.6,12.42H18.28a2.18,2.18,0,0,1,1.32-1.93Zm0-7.84a2.21,2.21,0,0,1-1.32-1.93H19.6Z" style="fill:#fcc400;stroke:#fcc400;stroke-miterlimit:10;stroke-width:0.31893759965896606px"/><path d="M13,9.9c-.17,0-.3.24-.28.49h0a.36.36,0,0,0,.37.4h0c1.21-.17,2.17-1.55,2.29-3.31a3.22,3.22,0,0,0-3-3.4,3.26,3.26,0,0,0-3,3.4v.25c0,.26.18.46.36.43a.45.45,0,0,0,.29-.51h0V7.54a2.36,2.36,0,0,1,4.71-.31,1.6,1.6,0,0,1,0,.31A2.35,2.35,0,0,1,13,9.9Z" style="fill:#fcc400;stroke:#fcc400;stroke-miterlimit:10;stroke-width:0.31893759965896606px"/><path d="M2.33,15.28h1.9A.3.3,0,0,0,4.55,15h0a.31.31,0,0,0-.29-.33h-2a.31.31,0,0,0,.1.59Z" style="fill:#fcc400"/></svg>