<svg id="Layer_1" data-name="Layer 1" xmlns="http://www.w3.org/2000/svg" viewBox="0 0 20 23"><path d="M12.2,1.1a5.1,5.1,0,0,0,0,10.2,5,5,0,0,0,2.7-.8l3.7,3.7,1.3-1.3L16.3,9.3a5,5,0,0,0,1-3.1A5.12,5.12,0,0,0,12.2,1.1Zm0,1.2a3.9,3.9,0,0,1,3.9,3.9,3.84,3.84,0,0,1-3.9,3.9A3.9,3.9,0,0,1,8.3,6.2a3.84,3.84,0,0,1,3.9-3.9Z" style="fill:#fdc309"/><path d="M1.3,15h6a.47.47,0,0,1,.5.5v6a.47.47,0,0,1-.5.5h-6a.47.47,0,0,1-.5-.5v-6C.9,15.2,1.1,15,1.3,15Z" style="fill:none;stroke:#fdc309;stroke-miterlimit:10;stroke-width:1.1102999448776245px"/><path d="M9.8,15h6a.47.47,0,0,1,.5.5v6a.47.47,0,0,1-.5.5h-6a.47.47,0,0,1-.5-.5v-6C9.4,15.2,9.6,15,9.8,15Z" style="fill:none;stroke:#fdc309;stroke-miterlimit:10;stroke-width:1.1102999448776245px"/><path d="M5.5,6.4h6a.47.47,0,0,1,.5.5v6a.47.47,0,0,1-.5.5h-6a.47.47,0,0,1-.5-.5v-6A.47.47,0,0,1,5.5,6.4Z" style="fill:none;stroke:#fdc309;stroke-miterlimit:10;stroke-width:1.1102999448776245px"/></svg>