<svg width="800" height="800" viewBox="0 0 800 800" fill="none" xmlns="http://www.w3.org/2000/svg">
<path fill-rule="evenodd" clip-rule="evenodd" d="M284.277 560.867C284.488 590.44 267.281 617.22 240.702 628.69C214.123 640.157 183.425 634.043 162.961 613.207C142.497 592.373 136.312 560.933 147.297 533.59C158.282 506.243 184.268 488.4 213.102 488.4C231.91 488.33 249.975 495.923 263.323 509.513C276.671 523.103 284.208 541.577 284.277 560.867Z" stroke="#EFC32C" stroke-width="50" stroke-linecap="round" stroke-linejoin="round"/>
<path fill-rule="evenodd" clip-rule="evenodd" d="M623.383 560.867C623.593 590.44 606.387 617.22 579.807 628.69C553.23 640.157 522.53 634.043 502.067 613.207C481.603 592.373 475.417 560.933 486.403 533.59C497.387 506.243 523.373 488.4 552.207 488.4C571.017 488.33 589.08 495.923 602.427 509.513C615.777 523.103 623.313 541.577 623.383 560.867Z" stroke="#EFC32C" stroke-width="50" stroke-linecap="round" stroke-linejoin="round"/>
<path d="M472.68 585.867C486.487 585.867 497.68 574.677 497.68 560.867C497.68 547.06 486.487 535.867 472.68 535.867V585.867ZM284.18 535.867C270.373 535.867 259.18 547.06 259.18 560.867C259.18 574.677 270.373 585.867 284.18 585.867V535.867ZM447.68 560.867C447.68 574.677 458.873 585.867 472.68 585.867C486.487 585.867 497.68 574.677 497.68 560.867H447.68ZM497.68 385.3C497.68 371.493 486.487 360.3 472.68 360.3C458.873 360.3 447.68 371.493 447.68 385.3H497.68ZM472.68 535.867C458.873 535.867 447.68 547.06 447.68 560.867C447.68 574.677 458.873 585.867 472.68 585.867V535.867ZM481 585.867C494.807 585.867 506 574.677 506 560.867C506 547.06 494.807 535.867 481 535.867V585.867ZM623.24 535.87C609.433 535.93 598.29 547.17 598.35 560.977C598.41 574.783 609.653 585.93 623.46 585.867L623.24 535.87ZM698.75 482.833L723.75 482.72C723.743 481.28 723.613 479.847 723.36 478.43L698.75 482.833ZM705.907 380.897C703.473 367.307 690.487 358.26 676.893 360.693C663.303 363.123 654.257 376.113 656.69 389.707L705.907 380.897ZM472.647 204.235C458.84 204.235 447.647 215.428 447.647 229.235C447.647 243.042 458.84 254.235 472.647 254.235V204.235ZM591.957 229.235V254.235C592.123 254.235 592.293 254.233 592.463 254.23L591.957 229.235ZM667.323 307.268L642.333 306.556C642.283 308.268 642.41 309.98 642.713 311.665L667.323 307.268ZM656.653 389.7C659.083 403.29 672.07 412.34 685.663 409.913C699.253 407.483 708.333 394.49 705.907 380.897L656.653 389.7ZM497.613 229.235C497.613 215.428 486.457 204.235 472.647 204.235C458.84 204.235 447.647 215.428 447.647 229.235H497.613ZM447.613 385.3C447.613 399.11 458.807 410.3 472.613 410.3C486.423 410.3 497.613 399.11 497.613 385.3H447.613ZM447.647 229.235C447.647 243.042 458.84 254.235 472.647 254.235C486.457 254.235 497.613 243.042 497.613 229.235H447.647ZM472.613 202.568H497.617L497.613 202.389L472.613 202.568ZM437.123 166.668V191.669L437.29 191.668L437.123 166.668ZM116.837 166.668L116.6 191.668H116.837V166.668ZM81.25 202.502L56.25 202.278V202.502H81.25ZM81.25 525H56.249L56.251 525.227L81.25 525ZM116.837 560.833V535.833L116.6 535.837L116.837 560.833ZM141.928 585.833C155.735 585.833 166.928 574.643 166.928 560.833C166.928 547.027 155.735 535.833 141.928 535.833V585.833ZM472.68 360.3C458.873 360.3 447.68 371.493 447.68 385.3C447.68 399.11 458.873 410.3 472.68 410.3V360.3ZM681.33 410.3C695.137 410.3 706.33 399.11 706.33 385.3C706.33 371.493 695.137 360.3 681.33 360.3V410.3ZM472.68 535.867H284.18V585.867H472.68V535.867ZM497.68 560.867V385.3H447.68V560.867H497.68ZM472.68 585.867H481V535.867H472.68V585.867ZM623.46 585.867C650.39 585.75 676.033 574.657 694.79 555.243L658.833 520.5C649.307 530.36 636.49 535.81 623.24 535.87L623.46 585.867ZM694.79 555.243C713.527 535.853 723.873 509.753 723.75 482.72L673.75 482.95C673.817 497.123 668.38 510.62 658.833 520.5L694.79 555.243ZM723.36 478.43L705.907 380.897L656.69 389.707L674.14 487.24L723.36 478.43ZM472.647 254.235H591.957V204.235H472.647V254.235ZM592.463 254.23C605.637 253.963 618.48 259.237 627.963 269.053L663.927 234.317C644.923 214.641 618.74 203.687 591.447 204.24L592.463 254.23ZM627.963 269.053C637.467 278.893 642.733 292.438 642.333 306.556L692.313 307.98C693.093 280.603 682.907 253.969 663.927 234.317L627.963 269.053ZM642.713 311.665L656.653 389.7L705.907 380.897L691.933 302.871L642.713 311.665ZM447.647 229.235L447.613 385.3H497.613V229.235H447.647ZM497.613 229.235L497.617 202.568H447.613L447.647 229.235H497.613ZM497.613 202.389C497.377 169.226 470.817 141.444 436.96 141.669L437.29 191.668C442.36 191.634 447.567 195.988 447.617 202.747L497.613 202.389ZM437.123 141.668H116.837V191.668L437.123 191.669V141.668ZM117.075 141.669C100.885 141.516 85.4267 147.972 74.069 159.408L109.546 194.642C111.537 192.637 114.086 191.645 116.6 191.668L117.075 141.669ZM74.069 159.408C62.733 170.823 56.3934 186.256 56.25 202.278L106.249 202.725C106.277 199.562 107.534 196.668 109.546 194.642L74.069 159.408ZM56.25 202.502L56.249 525H106.25V202.502H56.25ZM56.251 525.227C56.3944 541.247 62.733 556.68 74.069 568.093L109.546 532.86C107.534 530.837 106.277 527.94 106.249 524.777L56.251 525.227ZM74.069 568.093C85.4267 579.53 100.885 585.987 117.075 585.833L116.6 535.837C114.086 535.86 111.537 534.867 109.546 532.86L74.069 568.093ZM116.837 585.833H141.928V535.833H116.837V585.833ZM472.68 410.3H681.33V360.3H472.68V410.3Z" fill="#EFC32C"/>
<path fill-rule="evenodd" clip-rule="evenodd" d="M200.094 391.175C187.114 377.807 178.31 360.891 174.775 342.524C171.21 324.105 173.04 305.038 180.043 287.652C186.985 270.363 198.837 255.528 214.111 245.01C245.102 223.663 285.899 223.663 316.888 245.01C332.163 255.528 344.015 270.363 350.957 287.652C357.96 305.038 359.791 324.105 356.225 342.524C352.69 360.891 343.886 377.807 330.906 391.175C313.717 408.966 290.131 419 265.499 419C240.869 419 217.283 408.966 200.094 391.175Z" stroke="#EFC32C" stroke-width="30" stroke-linecap="round" stroke-linejoin="round"/>
<path d="M265.155 261.267C258.921 261.927 254.404 267.511 255.064 273.74C255.725 279.969 261.314 284.483 267.547 283.823L265.155 261.267ZM293.173 298.909C295.617 304.677 302.277 307.373 308.05 304.931C313.822 302.489 316.52 295.834 314.076 290.066L293.173 298.909ZM340.396 380.488C335.961 376.064 328.774 376.07 324.346 380.503C319.916 384.936 319.924 392.117 324.36 396.542L340.396 380.488ZM375.631 447.684C380.068 452.111 387.254 452.104 391.683 447.671C396.111 443.237 396.105 436.057 391.668 431.631L375.631 447.684ZM267.547 283.823C278.481 282.666 288.887 288.791 293.173 298.909L314.076 290.066C305.894 270.75 286.03 259.057 265.155 261.267L267.547 283.823ZM324.36 396.542L375.631 447.684L391.668 431.631L340.396 380.488L324.36 396.542Z" fill="#EFC32C"/>
</svg>
