<svg id="Layer_1" data-name="Layer 1" xmlns="http://www.w3.org/2000/svg" xmlns:xlink="http://www.w3.org/1999/xlink" viewBox="0 0 20 23"><defs><filter id="luminosity-noclip" x="0.67" y="0.88" width="18.65" height="21.84" filterUnits="userSpaceOnUse" color-interpolation-filters="sRGB"><feFlood flood-color="#fdc309" result="bg"/><feBlend in="SourceGraphic" in2="bg"/></filter><mask id="mask" x="0.67" y="0.88" width="18.65" height="21.84" maskUnits="userSpaceOnUse"><circle cx="9.83" cy="4.94" r="4.06" style="filter:url(#luminosity-noclip)"/></mask><filter id="luminosity-noclip-2" x="5.21" y="-8203" width="11.67" height="32766" filterUnits="userSpaceOnUse" color-interpolation-filters="sRGB"><feFlood flood-color="#fdc309" result="bg"/><feBlend in="SourceGraphic" in2="bg"/></filter><mask id="mask-2" x="5.21" y="-8203" width="11.67" height="32766" maskUnits="userSpaceOnUse"><g style="filter:url(#luminosity-noclip-2)"/></mask></defs><g style="mask:url(#mask)"><rect x="1.3" y="14.27" width="7.82" height="7.82" rx="0.52" style="fill:none;stroke:#fdc309;stroke-miterlimit:10;stroke-width:1.2496810875297966px"/><rect x="10.88" y="14.27" width="7.82" height="7.82" rx="0.52" style="fill:none;stroke:#fdc309;stroke-miterlimit:10;stroke-width:1.2496810875297966px"/><rect x="1.3" y="4.71" width="7.82" height="7.82" rx="0.52" style="fill:none;stroke:#fdc309;stroke-miterlimit:10;stroke-width:1.2496810875297966px"/><rect x="10.88" y="4.71" width="7.82" height="7.82" rx="0.52" style="fill:none;stroke:#fdc309;stroke-miterlimit:10;stroke-width:1.2496810875297966px"/></g><g style="mask:url(#mask-2)"><path d="M10.11.23a4.72,4.72,0,1,0-.33,9.44A4.8,4.8,0,0,0,12.35,9l3.31,3.52,1.22-1.15L13.61,7.92A4.61,4.61,0,0,0,14.69,5.1,4.72,4.72,0,0,0,10.11.23Zm0,1.1a3.62,3.62,0,1,1-3.74,3.5,3.63,3.63,0,0,1,3.74-3.5Z"/></g></svg>