<svg id="Layer_3" data-name="Layer 3" xmlns="http://www.w3.org/2000/svg" viewBox="0 0 28 28"><path d="M9.67,22a3.49,3.49,0,0,1-1.81,3.18,2.69,2.69,0,0,1-3.24-.73A3.81,3.81,0,0,1,4,20.68a3,3,0,0,1,2.74-2.11,2.76,2.76,0,0,1,2.09,1A3.73,3.73,0,0,1,9.67,22Z" style="fill:none;stroke:#efc32c;stroke-linecap:round;stroke-linejoin:round;stroke-width:2px"/><path d="M23.78,22A3.48,3.48,0,0,1,22,25.14a2.68,2.68,0,0,1-3.23-.73,3.81,3.81,0,0,1-.65-3.73,3,3,0,0,1,2.74-2.11,2.73,2.73,0,0,1,2.08,1A3.73,3.73,0,0,1,23.78,22Z" style="fill:none;stroke:#efc32c;stroke-linecap:round;stroke-linejoin:round;stroke-width:2px"/><path d="M17.51,23.13a1.18,1.18,0,0,0,0-2.34ZM9.66,20.79a1.18,1.18,0,0,0,0,2.34ZM16.47,22a1,1,0,1,0,2.08,0Zm2.08-8.22a1,1,0,1,0-2.08,0Zm-1,7a1.18,1.18,0,0,0,0,2.34Zm.34,2.34a1.18,1.18,0,0,0,0-2.34Zm5.92-2.34a1.18,1.18,0,0,0,0,2.34Zm3.14-2.48h1a1.34,1.34,0,0,0,0-.2Zm.3-4.78A1.05,1.05,0,0,0,26,12.59a1.16,1.16,0,0,0-.84,1.35Zm-9.7-8.27a1.11,1.11,0,0,0-1.05,1.17A1.11,1.11,0,0,0,17.51,7.6Zm5,1.17V7.6h0Zm3.13,3.65-1,0a1.94,1.94,0,0,0,0,.24Zm-.44,3.86a1.06,1.06,0,0,0,1.21,1,1.17,1.17,0,0,0,.84-1.36ZM18.54,6.43a1,1,0,1,0-2.08,0Zm-2.08,7.31a1,1,0,1,0,2.08,0Zm0-7.31a1,1,0,1,0,2.08,0Zm1-1.25h0ZM16,3.5V4.67h0ZM2.7,3.5V4.67h0ZM1.22,5.18h0Zm0,15.1h0ZM2.7,22V20.79h0Zm1,1.17a1.18,1.18,0,0,0,0-2.34ZM17.51,12.57a1.18,1.18,0,0,0,0,2.34Zm8.68,2.34a1.18,1.18,0,0,0,0-2.34Zm-8.68,5.88H9.66v2.34h7.85Zm1,1.17V13.74H16.47V22Zm-1,1.17h.34V20.79h-.34Zm6.27,0a4,4,0,0,0,3-1.43l-1.5-1.63a2,2,0,0,1-1.48.72Zm3-1.43A5.17,5.17,0,0,0,28,18.3H25.87a2.7,2.7,0,0,1-.62,1.76Zm1.19-3.6-.73-4.57-2.05.41.73,4.57ZM17.51,7.6h5V5.26h-5Zm5,0A1.92,1.92,0,0,1,24,8.3l1.49-1.63a3.85,3.85,0,0,0-3-1.41ZM24,8.3a2.6,2.6,0,0,1,.59,1.75l2.08.07a5.08,5.08,0,0,0-1.18-3.45Zm.61,2,.58,3.65,2.05-.41-.58-3.65ZM16.46,6.43v7.31h2.08V6.43Zm2.08,0V5.18H16.46V6.43Zm0-1.26A2.69,2.69,0,0,0,16,2.33V4.67a.48.48,0,0,1,.43.52ZM16,2.33H2.7V4.67H16Zm-13.32,0a2.37,2.37,0,0,0-1.79.83L2.4,4.81a.4.4,0,0,1,.29-.14ZM.92,3.16a3.13,3.13,0,0,0-.74,2l2.08,0a.56.56,0,0,1,.14-.38Zm-.74,2v15.1H2.26V5.18Zm0,15.11a3.13,3.13,0,0,0,.74,2L2.4,20.65a.56.56,0,0,1-.14-.38Zm.74,2a2.37,2.37,0,0,0,1.79.83l0-2.34a.4.4,0,0,1-.29-.14Zm1.78.83h1V20.79h-1Zm14.81-8.22h8.68V12.57H17.51Z" style="fill:#efc32c"/><path d="M6.17,14a4.68,4.68,0,0,1-1.06-2.27,5.08,5.08,0,0,1,.22-2.57,4.35,4.35,0,0,1,1.42-2,3.41,3.41,0,0,1,4.27,0,4.35,4.35,0,0,1,1.42,2,5.08,5.08,0,0,1,.22,2.57A4.67,4.67,0,0,1,11.61,14a3.59,3.59,0,0,1-2.72,1.31A3.56,3.56,0,0,1,6.17,14Z" style="fill:none;stroke:#efc32c;stroke-linecap:round;stroke-linejoin:round"/><path d="M8.87,7.93a.52.52,0,0,0-.42.58A.49.49,0,0,0,9,9ZM10,9.69a.46.46,0,0,0,.62.29.57.57,0,0,0,.25-.7Zm2,3.82a.44.44,0,0,0-.66,0,.56.56,0,0,0,0,.75Zm1.47,3.15a.43.43,0,0,0,.67,0,.59.59,0,0,0,0-.75ZM9,9a1,1,0,0,1,1.07.7l.87-.41a2,2,0,0,0-2-1.35Zm2.37,5.27,2.13,2.4.67-.75L12,13.51Z" style="fill:#efc32c"/></svg>