<svg id="Layer_3" data-name="Layer 3" xmlns="http://www.w3.org/2000/svg" viewBox="0 0 28 28"><title>search_for_truck</title><path d="M23.66,7.51H20.43V2.2a1,1,0,0,0-.8-1.08H1.91a1,1,0,0,0-.8,1.08V21.46a1,1,0,0,0,.8,1.08h.81V3.21H18.79V15.73a4.77,4.77,0,0,1,1.29-.22h.36V9.71h3.21a2,2,0,0,1,1.57,2.11h0v1.09H22V15h3.23v5.4H23.29a3.45,3.45,0,0,0-4.2-2.79,3.23,3.23,0,0,0-.6.24,4.57,4.57,0,0,0-1.91,2.56H11.1a3.76,3.76,0,0,0-3.34-3c-2.25,0-3.95,2.87-3.3,6a4.21,4.21,0,0,0,2.43,3.17c2.25.82,4.31-1.26,4.49-4.11h5.07c.23,2.64,2,4.54,4,4.31a4.39,4.39,0,0,0,3.17-4.31h2.46a1,1,0,0,0,.8-1.08V11.82A3.9,3.9,0,0,0,23.66,7.51ZM8,24.75a.71.71,0,0,1-.25,0,2.23,2.23,0,0,1-2-2.41v0a2.39,2.39,0,0,1,1.74-2.64h.25a2.23,2.23,0,0,1,2,2.41v0A2.42,2.42,0,0,1,8,24.75Zm12,0h0a2.38,2.38,0,0,1-1.81-2.67,2.23,2.23,0,0,1,2-2.43h0A2.36,2.36,0,0,1,22,22.2,2.32,2.32,0,0,1,20,24.75Z" style="fill:#fdc309"/><path d="M14.51,7.13A5.06,5.06,0,0,0,7,5.77a6.47,6.47,0,0,0-1.22,8.4,5.81,5.81,0,0,0,1,1.13,4.93,4.93,0,0,0,6.28,0l1,1.18c.38.45.83,1.16,1.39,1.26h.19a1.07,1.07,0,0,0,.79-1.25,1.16,1.16,0,0,0-.1-.33,3.77,3.77,0,0,0-.57-.68l-1.44-1.63A6.7,6.7,0,0,0,14.51,7.13ZM10,6.42h0A3.71,3.71,0,0,1,13.28,9a4.47,4.47,0,0,1-1,4.47,3.31,3.31,0,0,1-4.2.39A4.32,4.32,0,0,1,6.85,8.34,3.57,3.57,0,0,1,10,6.42Z" style="fill:#fdc309"/><path d="M9.9,8.78a1.31,1.31,0,0,1,.9.45,2.33,2.33,0,0,1,.61,1.21,3.12,3.12,0,0,0,0,.81.74.74,0,0,0,.54.42h0a.82.82,0,0,0,.73-.76,4.56,4.56,0,0,0-.17-1.5,3.91,3.91,0,0,0-1.39-2.08c-.54-.37-1.77-.92-2,.29a1,1,0,0,0,.69,1.14Z" style="fill:#fdc309"/></svg>