<svg id="Layer_2" data-name="Layer 2" xmlns="http://www.w3.org/2000/svg" viewBox="0 0 21 21"><path d="M18,6H15.48V2.3a.69.69,0,0,0-.62-.75H1.13a.69.69,0,0,0-.63.74h0V15.71a.69.69,0,0,0,.62.75h.63V3H14.24v8.72a4.24,4.24,0,0,1,1-.15h.27v-4H18A1.39,1.39,0,0,1,19.25,9h0v.76H16.74v1.48h2.51V15H17.74a2.7,2.7,0,0,0-3.27-1.95,2.64,2.64,0,0,0-.47.17A3.23,3.23,0,0,0,12.53,15H8.27a2.85,2.85,0,0,0-2.61-2.06C3.92,13,2.6,15,3.1,17.11A3,3,0,0,0,5,19.33c1.75.57,3.35-.88,3.5-2.86h3.94a3,3,0,0,0,3,3h.1a3.12,3.12,0,0,0,2.47-3h1.91a.69.69,0,0,0,.63-.74h0V9A2.78,2.78,0,0,0,18,6ZM5.86,18a.67.67,0,0,1-.2,0,1.61,1.61,0,0,1-1.54-1.68v0a1.69,1.69,0,0,1,1.35-1.84h.19a1.62,1.62,0,0,1,1.55,1.69h0A1.7,1.7,0,0,1,5.86,18Zm9.28,0h0a1.67,1.67,0,0,1-1.4-1.86,1.62,1.62,0,0,1,1.55-1.69h0a1.67,1.67,0,0,1,1.41,1.78A1.68,1.68,0,0,1,15.14,18Z" style="fill:#fcc400"/><circle cx="6.81" cy="7.66" r="2.53" style="fill:#fff;stroke:#fcc400;stroke-miterlimit:2;stroke-width:0.5519044399261475px"/><line x1="5.83" y1="8.61" x2="7.86" y2="6.72" style="fill:none"/><path d="M6.1,8.87,7.88,7.22,8.13,7a.38.38,0,0,0,0-.54h0a.4.4,0,0,0-.54,0L5.82,8.11l-.25.23a.37.37,0,1,0,.53.53Z" style="fill:#fcc400"/><line x1="7.79" y1="8.61" x2="5.76" y2="6.72" style="fill:none"/><path d="M8.05,8.34,6.28,6.68,6,6.45a.4.4,0,0,0-.54,0,.38.38,0,0,0,0,.54h0L7.27,8.64l.25.23a.37.37,0,1,0,.53-.53Z" style="fill:#fcc400"/></svg>