<svg id="Layer_2" data-name="Layer 2" xmlns="http://www.w3.org/2000/svg" viewBox="0 0 21 21"><path d="M20,1.5h-.86a.48.48,0,0,0-.29.17.36.36,0,0,0-.09.3.46.46,0,0,0,.4.34h.39V18.68h-.41a.43.43,0,0,0-.29.16.39.39,0,0,0-.09.31.46.46,0,0,0,.4.34H20a.44.44,0,0,0,.46-.41V1.91A.43.43,0,0,0,20,1.5Z" style="fill:#fcc400"/><path d="M16.28,15.14V1.91a.43.43,0,0,0-.45-.41H1.56A1,1,0,0,0,.5,2.44V19.08a.4.4,0,0,0,.25.36h9.66a.42.42,0,0,0,.38-.46h0a.44.44,0,0,0-.4-.34H1.87a.46.46,0,0,1-.47-.42V2.74a.45.45,0,0,1,.47-.43H14.93a.45.45,0,0,1,.47.43h0V14.48a.45.45,0,0,1-.47.43H12.25a1,1,0,0,0-1.06.94v3.28a.44.44,0,0,0,.46.41.47.47,0,0,0,.32-.12l4-3.61Zm-2.34,1.3-1,.93a.48.48,0,0,1-.51.09.42.42,0,0,1-.29-.39v-.93a.45.45,0,0,1,.47-.43h1A.46.46,0,0,1,14,16,.4.4,0,0,1,13.94,16.44Z" style="fill:#fcc400"/><path d="M18,1.5h-.87a.51.51,0,0,0-.3.17.36.36,0,0,0-.08.3.44.44,0,0,0,.4.34h.39V18.68H13.38a.43.43,0,0,0-.3.16.39.39,0,0,0-.08.31.44.44,0,0,0,.4.34h4.54a.43.43,0,0,0,.45-.41h0V1.91A.44.44,0,0,0,18,1.5Z" style="fill:#fcc400"/><path d="M4.2,9.39h8.35a.47.47,0,0,0,.3-.1A.38.38,0,0,0,13,9a.43.43,0,0,0-.39-.43H4.27A.45.45,0,0,0,3.81,9,.43.43,0,0,0,4.2,9.39Z" style="fill:#fcc400"/><path d="M4.2,7.88h8.35A.45.45,0,0,0,13,7.49a.42.42,0,0,0-.39-.42H4.27a.41.41,0,1,0-.07.81Z" style="fill:#fcc400"/><path d="M12.5,6.37h.1a.43.43,0,0,0,.25-.07.41.41,0,0,0,.2-.25.36.36,0,0,0-.05-.3.41.41,0,0,0-.28-.18H4.3A.44.44,0,0,0,3.81,6a.43.43,0,0,0,.39.43Z" style="fill:#fcc400"/><path d="M12.55,10.88a.45.45,0,0,0,.46-.39.44.44,0,0,0-.39-.43H4.3a.44.44,0,0,0-.49.38h0a.42.42,0,0,0,.39.42h8.35Z" style="fill:#fcc400"/><path d="M9.53,11.6H4.32a.47.47,0,0,0-.55.31.42.42,0,0,0,.06.31.47.47,0,0,0,.29.18H9.43a.43.43,0,0,0,.25-.07.37.37,0,0,0,.19-.25.35.35,0,0,0-.06-.31A.46.46,0,0,0,9.53,11.6Z" style="fill:#fcc400"/></svg>