<svg id="Layer_2" data-name="Layer 2" xmlns="http://www.w3.org/2000/svg" viewBox="0 0 21 21"><path d="M18,6H15.5V2.3a.69.69,0,0,0-.61-.75H1.18a.69.69,0,0,0-.62.75V15.71a.69.69,0,0,0,.62.75h.63V3H14.22v8.72a4.24,4.24,0,0,1,1-.15h.27v-4H18A1.39,1.39,0,0,1,19.2,9h0v.76H16.71v1.48H19.2V15H17.7a2.67,2.67,0,0,0-3.24-1.94,2.51,2.51,0,0,0-.46.16A3.18,3.18,0,0,0,12.52,15H8.28a2.83,2.83,0,0,0-2.59-2.06C4,13,2.64,15,3.14,17.11A3,3,0,0,0,5,19.33c1.74.57,3.34-.88,3.48-2.86H12.4a3,3,0,0,0,3.08,3,3.12,3.12,0,0,0,2.46-3h1.9a.69.69,0,0,0,.62-.75V9A2.77,2.77,0,0,0,18,6ZM5.89,18a.67.67,0,0,1-.2,0,1.61,1.61,0,0,1-1.53-1.69h0A1.68,1.68,0,0,1,5.5,14.41h.19a1.61,1.61,0,0,1,1.54,1.68v0A1.72,1.72,0,0,1,5.89,18Zm9.22,0h0a1.67,1.67,0,0,1-1.4-1.86,1.62,1.62,0,0,1,1.53-1.69h0a1.68,1.68,0,0,1,1.4,1.78A1.66,1.66,0,0,1,15.11,18Z" style="fill:#fcc400"/><ellipse cx="7.1" cy="7.69" rx="2.53" ry="2.52" style="fill:#fff;stroke:#fcc400;stroke-miterlimit:2;stroke-width:0.5509112477302551px"/><polyline points="5.65 7.49 6.43 8.58 8.54 6.81" style="fill:#fff"/><path d="M5.33,7.68l.78,1.09a.39.39,0,0,0,.54.11l0,0L8.54,7.29l.26-.22a.37.37,0,0,0,0-.52h0a.39.39,0,0,0-.53,0L6.43,8.09l-.26.22.59.08L6,7.3a.38.38,0,0,0-.51-.13.36.36,0,0,0-.14.5h0Z" style="fill:#fcc400"/></svg>