<svg id="Layer_5" data-name="Layer 5" xmlns="http://www.w3.org/2000/svg" viewBox="0 0 28 28"><title>shipment_path</title><path d="M5.48,27.21h0A.75.75,0,0,1,5,26.88C4,25.7,1.13,21.63,1.13,19a4.3,4.3,0,0,1,4.35-4.2A4.55,4.55,0,0,1,8.7,16.12,4,4,0,0,1,9.86,19a16.22,16.22,0,0,1-3.75,7.87A.33.33,0,0,1,6,27,.65.65,0,0,1,5.48,27.21Zm0-11.79A3.67,3.67,0,0,0,1.74,19a16.82,16.82,0,0,0,3.65,7.54h0C8.4,22.33,9,20.09,9,19a3.32,3.32,0,0,0-1-2.51A3.9,3.9,0,0,0,5.48,15.42Z" style="fill:#fdc309;stroke:#fdc309;stroke-miterlimit:10;stroke-width:0.5px"/><path d="M5.48,20.65A1.66,1.66,0,0,1,3.85,19a1.63,1.63,0,0,1,1.63-1.63A1.66,1.66,0,0,1,7.14,19h.05a1.68,1.68,0,0,1-1.71,1.66Zm0-2.69a1.06,1.06,0,0,0-1,1,1,1,0,0,0,2.06,0h0a1,1,0,0,0-1-1Z" style="fill:#fdc309;stroke:#fdc309;stroke-miterlimit:10;stroke-width:0.5px"/><path d="M22.9,13h0a.75.75,0,0,1-.53-.33c-.93-1.18-3.82-5.26-3.82-7.9A4.3,4.3,0,0,1,22.9.54a4.55,4.55,0,0,1,3.22,1.33,4,4,0,0,1,1.16,2.87,16.22,16.22,0,0,1-3.75,7.87.33.33,0,0,1-.15.18A.65.65,0,0,1,22.9,13Zm0-11.79a3.67,3.67,0,0,0-3.75,3.57,16.82,16.82,0,0,0,3.65,7.54h0c3-4.2,3.65-6.44,3.65-7.54a3.32,3.32,0,0,0-1-2.51A3.9,3.9,0,0,0,22.9,1.17Z" style="fill:#fdc309;stroke:#fdc309;stroke-miterlimit:10;stroke-width:0.5px"/><path d="M22.9,6.4a1.66,1.66,0,0,1-1.63-1.66A1.63,1.63,0,0,1,22.9,3.1a1.66,1.66,0,0,1,1.66,1.63h.05A1.68,1.68,0,0,1,22.9,6.4Zm0-2.69a1.06,1.06,0,0,0-1,1,1,1,0,0,0,2.06,0h0a1,1,0,0,0-1-1Z" style="fill:#fdc309;stroke:#fdc309;stroke-miterlimit:10;stroke-width:0.5px"/><path d="M19.47,13.13c-6.89,0-7,6.74-.16,6.74s7.27,7.07.16,7.07" style="fill:none;stroke:#fdc309;stroke-miterlimit:10"/><line x1="19.47" y1="26.94" x2="8.53" y2="26.94" style="fill:none;stroke:#fdc309;stroke-miterlimit:10"/><line x1="19.43" y1="13.13" x2="21.68" y2="13.13" style="fill:none;stroke:#fdc309;stroke-miterlimit:10"/></svg>