<svg id="Layer_2" data-name="Layer 2" xmlns="http://www.w3.org/2000/svg" viewBox="0 0 21 21"><path d="M18.74,6.5h0a.3.3,0,0,1-.21-.13C18.16,5.9,17,4.27,17,3.23a1.71,1.71,0,0,1,1.73-1.67A1.79,1.79,0,0,1,20,2.09a1.56,1.56,0,0,1,.46,1.14A6.42,6.42,0,0,1,19,6.36a.13.13,0,0,1-.06.07A.25.25,0,0,1,18.74,6.5Zm0-4.69a1.46,1.46,0,0,0-1.49,1.42,6.62,6.62,0,0,0,1.45,3h0c1.2-1.67,1.45-2.56,1.45-3a1.3,1.3,0,0,0-.39-1A1.54,1.54,0,0,0,18.74,1.81Z" style="fill:#fcc400;stroke:#fcc400;stroke-miterlimit:10;stroke-width:0.25px"/><path d="M18.74,3.88a.65.65,0,0,1,0-1.3.66.66,0,0,1,.66.65h0A.66.66,0,0,1,18.74,3.88Zm0-1.06a.41.41,0,1,0,0,.82h0a.41.41,0,0,0,.41-.41h0A.41.41,0,0,0,18.74,2.82Z" style="fill:#fcc400;stroke:#fcc400;stroke-miterlimit:10;stroke-width:0.25px"/><path d="M2.32,19.35h0a.3.3,0,0,1-.21-.13A7,7,0,0,1,.59,16.08a1.71,1.71,0,0,1,1.73-1.67,1.81,1.81,0,0,1,1.28.53,1.56,1.56,0,0,1,.46,1.14,6.47,6.47,0,0,1-1.49,3.13.13.13,0,0,1-.06.07A.26.26,0,0,1,2.32,19.35Zm0-4.69A1.46,1.46,0,0,0,.83,16.08a6.62,6.62,0,0,0,1.45,3h0c1.2-1.67,1.45-2.56,1.45-3a1.3,1.3,0,0,0-.39-1A1.56,1.56,0,0,0,2.32,14.66Z" style="fill:#fcc400;stroke:#fcc400;stroke-miterlimit:10;stroke-width:0.25px"/><path d="M2.32,16.74a.66.66,0,0,1-.65-.66.65.65,0,0,1,.65-.65.66.66,0,0,1,.66.65H3a.67.67,0,0,1-.68.66Zm0-1.07a.43.43,0,0,0-.41.41.41.41,0,0,0,.82,0h0a.42.42,0,0,0-.4-.41Z" style="fill:#fcc400;stroke:#fcc400;stroke-miterlimit:10;stroke-width:0.25px"/><path d="M2,6.51c0,1.64,1,3,2.3,3H16.56c2.11,0,3.82,2.23,3.82,5s-1.71,5-3.82,5h-11v-2h11c1.27.08,2.34-1.2,2.4-2.85a2.82,2.82,0,0,0-2.19-3.12H4.33C2.21,11.49.5,9.26.5,6.51s1.71-5,3.83-5H15.9v2H4.33C3.06,3.52,2,4.85,2,6.5Z" style="fill:#fcc400;fill-rule:evenodd"/></svg>