<svg id="Layer_1" data-name="Layer 1" xmlns="http://www.w3.org/2000/svg" viewBox="0 0 24.34 23"><path d="M2.43,8.82H5.1a1.35,1.35,0,0,1,1.31,1.25v3a1.37,1.37,0,0,1-1.18,1.4H2.43a1.37,1.37,0,0,1-1.32-1.25v-3A1.4,1.4,0,0,1,2.3,8.82Zm2.66,1.41H2.43v2.82H5.1Z" style="fill:#fdc309"/><path d="M2.43,17.14H5.1a1.35,1.35,0,0,1,1.31,1.25v3a1.38,1.38,0,0,1-1.18,1.41H2.43a1.37,1.37,0,0,1-1.32-1.25v-3A1.4,1.4,0,0,1,2.3,17.14Zm2.66,1.41H2.43v2.82H5.1Z" style="fill:#fdc309"/><path d="M22,18.3a1.65,1.65,0,1,1,0,3.29H12.73a1.65,1.65,0,1,1,0-3.29Zm0-8.23a1.65,1.65,0,0,1,.19,3.27H12.73a1.65,1.65,0,0,1-.19-3.27H22ZM7.72.57a1.28,1.28,0,0,1,.08,1.6l-.11.14L3.86,6.42A1.13,1.13,0,0,1,3,6.78a1.09,1.09,0,0,1-.69-.24l-.14-.12L.66,4.77A1.27,1.27,0,0,1,.66,3,1.1,1.1,0,0,1,2.17,2.9L2.31,3,3,3.78,6,.57A1.12,1.12,0,0,1,7.62.47.47.47,0,0,1,7.72.57ZM22,1.84a1.61,1.61,0,0,1,1.55,1.65,1.63,1.63,0,0,1-1.37,1.64H12.73a1.61,1.61,0,0,1-1.55-1.65,1.6,1.6,0,0,1,1.37-1.64Z" style="fill:#fdc309"/></svg>