<svg id="Layer_2" data-name="Layer 2" xmlns="http://www.w3.org/2000/svg" viewBox="0 0 21 21"><path d="M17.58,1.5h-7A2.8,2.8,0,0,0,7.66,4.11v6.27A2.79,2.79,0,0,0,10.58,13h7a2.78,2.78,0,0,0,2.92-2.62V4.11A2.78,2.78,0,0,0,17.58,1.5Zm1.75,8.88A1.66,1.66,0,0,1,17.63,12h-7a1.66,1.66,0,0,1-1.75-1.56V4.11a1.66,1.66,0,0,1,1.75-1.56h7a1.66,1.66,0,0,1,1.75,1.56Z" style="fill:#fcc400"/><path d="M12.75,14.27a.56.56,0,0,0-.58.53v2.08a1.67,1.67,0,0,1-1.74,1.57h-7a1.68,1.68,0,0,1-1.75-1.57V10.62A1.68,1.68,0,0,1,3.42,9.05H5.75a.51.51,0,0,0,.64-.36A.52.52,0,0,0,6,8.05a.48.48,0,0,0-.29,0H3.42A2.78,2.78,0,0,0,.5,10.62v6.27A2.78,2.78,0,0,0,3.42,19.5h7a2.78,2.78,0,0,0,2.91-2.61V14.8a.56.56,0,0,0-.59-.53h0Z" style="fill:#fcc400"/><path d="M3.22,12.79a.54.54,0,0,0,.56.5h.7a4.86,4.86,0,0,0,1.67,2.34c-.38.19-.87.43-1.5.71a.49.49,0,0,0-.27.64v0a.6.6,0,0,0,.75.23,18.35,18.35,0,0,0,2-1c.63.35,1.29.68,2,1A.59.59,0,0,0,9.87,17a.5.5,0,0,0-.22-.66h0c-.55-.24-1-.48-1.5-.73l1.08-1A.46.46,0,0,0,9.26,14l-.06-.06a.62.62,0,0,0-.79,0l-1.11,1L7.15,15l-.24-.16a3.61,3.61,0,0,1-1.24-1.6H7.13a.5.5,0,0,0,0-1H3.78a.53.53,0,0,0-.56.5h0Z" style="fill:#fcc400"/><path d="M14.51,4.46H13.8L10.9,9.65a.43.43,0,0,0,.19.58h0a.52.52,0,0,0,.65-.2h0l.84-1.49h3.27L16.55,10a.52.52,0,0,0,.65.2.42.42,0,0,0,.24-.54s0,0,0-.05ZM12.93,7.68l1.15-2.06,1.15,2.06Z" style="fill:#fcc400"/></svg>