<svg id="Layer_2" data-name="Layer 2" xmlns="http://www.w3.org/2000/svg" viewBox="0 0 21 21"><path d="M18,6H15.5V2.3a.69.69,0,0,0-.61-.75H1.18a.69.69,0,0,0-.62.75V15.71a.69.69,0,0,0,.62.75h.63V3H14.22v8.72a4.24,4.24,0,0,1,1-.15h.27v-4H18A1.39,1.39,0,0,1,19.2,9h0v.76H16.7v1.48h2.5V15H17.69a2.65,2.65,0,0,0-3.22-1.94,2.6,2.6,0,0,0-.47.16A3.18,3.18,0,0,0,12.52,15H8.28a2.83,2.83,0,0,0-2.59-2.06c-1.73,0-3,2-2.55,4.18A3,3,0,0,0,5,19.33c1.73.57,3.33-.88,3.47-2.86h3.92a3,3,0,0,0,3.08,3,3.12,3.12,0,0,0,2.46-3h1.9a.69.69,0,0,0,.62-.75V9A2.78,2.78,0,0,0,18,6ZM5.89,18a.67.67,0,0,1-.2,0,1.61,1.61,0,0,1-1.53-1.69h0A1.69,1.69,0,0,1,5.5,14.41h.19a1.61,1.61,0,0,1,1.54,1.68v0A1.72,1.72,0,0,1,5.89,18Zm9.22,0h0a1.67,1.67,0,0,1-1.4-1.86,1.62,1.62,0,0,1,1.53-1.69h0a1.68,1.68,0,0,1,1.4,1.78A1.66,1.66,0,0,1,15.11,18Z" style="fill:#fcc400"/><g id="SVGRepo_iconCarrier" data-name="SVGRepo iconCarrier"><path d="M9.69,10.16H9.33V9.58a1.78,1.78,0,0,0-1-1.48.29.29,0,0,1-.13-.27.32.32,0,0,1,.13-.28,1.78,1.78,0,0,0,1-1.48V5.5h.36a.2.2,0,0,0,.2-.19.19.19,0,0,0-.2-.18H5.51a.19.19,0,0,0-.21.17h0a.2.2,0,0,0,.21.19h.36v.57a1.76,1.76,0,0,0,1,1.48A.34.34,0,0,1,7,7.83a.32.32,0,0,1-.14.27,1.76,1.76,0,0,0-1,1.48v.58H5.51a.18.18,0,0,0,0,.36H9.69a.18.18,0,1,0,0-.36ZM6.27,9.58A1.48,1.48,0,0,1,7.09,8.4a.69.69,0,0,0,0-1.15,1.48,1.48,0,0,1-.82-1.18V5.5H8.92v.57A1.48,1.48,0,0,1,8.1,7.25a.69.69,0,0,0,0,1.15,1.48,1.48,0,0,1,.82,1.18v.58H8.85A3.24,3.24,0,0,0,7.72,8.91a.23.23,0,0,0-.25,0,3.24,3.24,0,0,0-1.13,1.25H6.27Zm2.15.58H6.77a3.13,3.13,0,0,1,.83-.87A3,3,0,0,1,8.42,10.16Z" style="fill:#fcc400"/><path d="M7.6,8.6a.2.2,0,0,0,.14-.06.14.14,0,0,0,.06-.12.16.16,0,0,0-.06-.13.2.2,0,0,0-.14-.06.2.2,0,0,0-.15.06.16.16,0,0,0-.06.13.14.14,0,0,0,.06.12A.2.2,0,0,0,7.6,8.6Z" style="fill:#fcc400"/><path d="M7.6,7.64a.2.2,0,0,0,.2-.19V7.13A.2.2,0,0,0,7.6,7a.19.19,0,0,0-.21.17h0V7.5A.2.2,0,0,0,7.6,7.64Z" style="fill:#fcc400"/></g></svg>