<svg id="Capa_1" data-name="Capa 1" xmlns="http://www.w3.org/2000/svg" viewBox="0 0 24.42 23"><path d="M23.94,5.77,12.59.09a.87.87,0,0,0-.77,0L.48,5.77A.84.84,0,0,0,0,6.53V22.14A.86.86,0,0,0,.86,23H3.7a.86.86,0,0,0,.86-.86V8.81h15.3V22.14a.87.87,0,0,0,.86.86h2.84a.86.86,0,0,0,.86-.86V6.53A.85.85,0,0,0,23.94,5.77ZM22.7,21.28H21.58V8a.86.86,0,0,0-.86-.86H3.7A.86.86,0,0,0,2.84,8V21.28H1.72V7.07L12.21,1.82,22.7,7.07Z" style="fill:#ffc400"/><path d="M17.88,10.19H12.21a.6.6,0,0,0-.6.6v5.07H6.53a.6.6,0,0,0-.6.61v5.67a.6.6,0,0,0,.6.6H17.88a.6.6,0,0,0,.61-.6V10.79A.6.6,0,0,0,17.88,10.19Zm-5.07,7.73L14.2,19.3l-1.39,1.39Zm-1.2,2.77L10.22,19.3l1.39-1.38Zm2.05-3.62h2.77l-1.38,1.38Zm0-1.21,1.39-1.38,1.38,1.38ZM17.28,15,15.9,13.63l1.38-1.39Zm-2.23-2.23-1.39-1.39h2.77Zm-.85.85L12.81,15V12.24ZM9.37,18.45,8,17.07h2.77Zm-.85.85L7.14,20.69V17.92Zm.85.85,1.39,1.39H8Zm5.68,0,1.38,1.39H13.66Zm.85-.85,1.38-1.38v2.77Z" style="fill:#ffc400"/></svg>