<svg id="Layer_2" data-name="Layer 2" xmlns="http://www.w3.org/2000/svg" xmlns:xlink="http://www.w3.org/1999/xlink" viewBox="0 0 21.53 23"><defs><clipPath id="clip-path"><rect x="-0.9" y="-0.75" width="23.28" height="24.49" style="fill:none"/></clipPath></defs><g style="clip-path:url(#clip-path)"><path d="M1,11.71c0-2.34,0-3.5.51-4.47S3,5.67,4.81,4.5L6.75,3.2c1.95-1.27,2.92-1.91,4-1.91s2,.64,4,1.91l1.94,1.3c1.84,1.17,2.76,1.75,3.26,2.74s.51,2.13.51,4.47v1.54c0,4,0,6-1.14,7.21s-3,1.23-6.65,1.23H8.81c-3.66,0-5.49,0-6.65-1.23S1,17.24,1,13.25Z" style="fill:none;stroke:#ffffff;stroke-width:1.9103993202024712px"/><path d="M13.65,17.62H7.83" style="fill:none;stroke:#ffffff;stroke-linecap:round;stroke-width:2.626799065278398px"/></g></svg>