<svg id="Layer_2" data-name="Layer 2" xmlns="http://www.w3.org/2000/svg" viewBox="0 0 21 21"><rect x="8.33" y="8.22" width="9.19" height="1.23" rx="0.29" style="fill:#fff"/><rect x="8.33" y="11.76" width="9.19" height="1.23" rx="0.29" style="fill:#fff"/><rect x="8.33" y="15.34" width="9.19" height="1.23" rx="0.29" style="fill:#fff"/><path d="M18,1.51H5.5m0,0H3A2.45,2.45,0,0,0,.5,3.9V17.1A2.45,2.45,0,0,0,3,19.49H18a2.45,2.45,0,0,0,2.5-2.39V3.9A2.45,2.45,0,0,0,18,1.51m1.5,15.25A1.21,1.21,0,0,1,18.32,18h-15A1.22,1.22,0,0,1,2,16.89v-12H19.53Z" style="fill:#fff"/><path d="M6.22,9.62a.18.18,0,1,1,.18-.18.18.18,0,0,1-.18.18h0M6.4,8.54l.23.3H6.1v-.3M4.78,9.62a.17.17,0,0,1-.14-.21h0a.19.19,0,0,1,.22-.13.18.18,0,0,1,0,.35h0m1.6-1.26H6.1V7.88H4.43a.24.24,0,0,0-.24.24V9.44h.24a.36.36,0,0,0,.28.41h0a.35.35,0,0,0,.41-.28h0a.24.24,0,0,0,0-.12h.72a.36.36,0,1,0,.72,0h.24v-.6Z" style="fill:#fff"/><path d="M6.23,16.63a.18.18,0,0,1,0-.36h0a.18.18,0,0,1,0,.36m.18-1.08.24.3H6.12v-.3M4.8,16.63a.18.18,0,0,1,0-.36.18.18,0,0,1,.16.18.18.18,0,0,1-.18.18h0m1.67-1.26H6.12v-.48H4.44a.24.24,0,0,0-.24.24v1.32h.24a.36.36,0,0,0,.72,0h.72a.36.36,0,0,0,.28.41h0a.35.35,0,0,0,.41-.28h0a.24.24,0,0,0,0-.12h.24v-.6Z" style="fill:#fff"/><path d="M6.22,13.14A.18.18,0,0,1,6,13a.19.19,0,0,1,.19-.18.18.18,0,0,1,.21.12V13h0a.18.18,0,0,1-.18.18h0M6.4,12.1l.23.3H6.1v-.3m-1.32,1a.19.19,0,0,1-.14-.2v0A.19.19,0,0,1,5,13a.23.23,0,0,1-.15.15h0M6.5,11.92H6.1V11.4H4.43a.24.24,0,0,0-.24.24V13h.24a.36.36,0,0,0,.28.41h0a.35.35,0,0,0,.41-.28h0a.24.24,0,0,0,0-.12h.72a.36.36,0,0,0,.72,0h.24v-.6Z" style="fill:#fff"/></svg>