<svg id="Layer_2" data-name="Layer 2" xmlns="http://www.w3.org/2000/svg" viewBox="0 0 21 21"><path d="M10.48,11.87h0a.67.67,0,0,0-.67.67v0h0v4.11a.67.67,0,0,0,1.34,0V12.56a.67.67,0,0,0-.65-.69Z" style="fill:#fff;stroke:#fff;stroke-miterlimit:10;stroke-width:0.25px"/><path d="M10.48,9.13a.86.86,0,1,0,.84.88h0a.85.85,0,0,0-.82-.88Z" style="fill:#fff;stroke:#fff;stroke-miterlimit:10;stroke-width:0.25px"/><path d="M20.59,18.58,12.24,3.83,11.11,1.74a.69.69,0,0,0-.92-.3.72.72,0,0,0-.3.3L1.59,16.49.42,18.59a.62.62,0,0,0,0,.53.31.31,0,0,0,0,.1.68.68,0,0,0,.54.37H20a.67.67,0,0,0,.67-.67v0A.72.72,0,0,0,20.59,18.58ZM2.18,18.24,9.9,4.51l.59-1,7.7,13.68.6,1.07Z" style="fill:#fff;stroke:#fff;stroke-miterlimit:10;stroke-width:0.25px"/></svg>