<svg id="Layer_1" data-name="Layer 1" xmlns="http://www.w3.org/2000/svg" viewBox="0 0 20 23"><path d="M11.57,14.17h6a1.24,1.24,0,0,1,1.26,1.24h0v5.88a1.26,1.26,0,0,1-1.26,1.26h-5.9a1.28,1.28,0,0,1-1.26-1.26v-6A1.17,1.17,0,0,1,11.57,14.17Z" style="fill:#fcc400"/><path d="M12.24,15.08H16.9a1,1,0,0,1,1,1v4.58a1,1,0,0,1-1,1H12.32a1,1,0,0,1-1-1V16a.9.9,0,0,1,.9-.9Z" style="fill:#363636"/><path d="M2.64,14.17h6A1.24,1.24,0,0,1,9.9,15.41v5.9a1.26,1.26,0,0,1-1.26,1.26H2.74a1.28,1.28,0,0,1-1.26-1.26v-6A1.16,1.16,0,0,1,2.64,14.17Z" style="fill:#fcc400"/><path d="M3.31,15.08H8a1,1,0,0,1,1,1v4.58a1,1,0,0,1-1,1H3.39a1,1,0,0,1-1-1V16a.9.9,0,0,1,.9-.9Z" style="fill:#363636"/><path d="M11.57,5.34h6A1.25,1.25,0,0,1,18.83,6.6v5.89a1.25,1.25,0,0,1-1.25,1.25H11.67a1.27,1.27,0,0,1-1.26-1.25v-6A1.17,1.17,0,0,1,11.57,5.34Z" style="fill:#fcc400"/><path d="M12.24,6.27H16.9a1,1,0,0,1,1,1v4.59a1,1,0,0,1-1,1H12.32a1,1,0,0,1-1-1V7.17a.9.9,0,0,1,.9-.9Z" style="fill:#363636"/><path d="M2.64,5.34h6A1.25,1.25,0,0,1,9.9,6.6h0v5.89a1.25,1.25,0,0,1-1.25,1.25H2.74a1.27,1.27,0,0,1-1.26-1.25v-6A1.17,1.17,0,0,1,2.64,5.34Z" style="fill:#fcc400"/><path d="M3.31,6.27H8a1,1,0,0,1,1,1v4.59a1,1,0,0,1-1,1H3.39a1,1,0,0,1-1-1V7.17a.9.9,0,0,1,.9-.9Z" style="fill:#363636"/><g id="mask"><ellipse cx="9.76" cy="5.24" rx="4.09" ry="3.91" style="fill:#363636"/></g><g id="mask-6"><circle cx="9.74" cy="5.22" r="4.06" style="fill:none;stroke:#fcc400;stroke-miterlimit:10"/></g><rect x="13.15" y="7.23" width="2.27" height="4.62" transform="translate(-2.56 12.9) rotate(-45)" style="fill:#fcc400"/><g id="Layer_2" data-name="Layer 2"><path d="M6.75,4.82a3.06,3.06,0,0,1,1-2,2.28,2.28,0,0,1,1.08-.55A2.75,2.75,0,0,1,10,2.17a3.53,3.53,0,0,0-2.05.77,3.08,3.08,0,0,0-.72.84A4.61,4.61,0,0,0,6.75,4.82Z" style="fill:#fcc400"/></g></svg>