<svg id="Layer_2" data-name="Layer 2" xmlns="http://www.w3.org/2000/svg" viewBox="0 0 21 21"><path d="M18,6H15.5V2.3a.69.69,0,0,0-.62-.75H1.15a.69.69,0,0,0-.62.75V15.71a.69.69,0,0,0,.62.75h.63V3H14.23v8.72a4.24,4.24,0,0,1,1-.15h.28v-4H18A1.39,1.39,0,0,1,19.22,9h0v.76h-2.5v1.48h2.5V15h-1.5a2.67,2.67,0,0,0-3.24-1.94h0a2.6,2.6,0,0,0-.47.16A3.18,3.18,0,0,0,12.52,15H8.27a2.83,2.83,0,0,0-2.59-2.06c-1.74,0-3.06,2-2.56,4.18A3,3,0,0,0,5,19.33c1.74.57,3.34-.88,3.48-2.86h3.93a3,3,0,0,0,3,3h.1a3.12,3.12,0,0,0,2.46-3h1.91a.69.69,0,0,0,.62-.75V9A2.78,2.78,0,0,0,18,6ZM5.87,18a.61.61,0,0,1-.19,0,1.61,1.61,0,0,1-1.54-1.68h0a1.68,1.68,0,0,1,1.35-1.84h.19a1.61,1.61,0,0,1,1.54,1.68h0A1.7,1.7,0,0,1,5.87,18Zm9.26,0h0a1.67,1.67,0,0,1-1.4-1.86,1.62,1.62,0,0,1,1.53-1.69h0a1.67,1.67,0,0,1,1.41,1.78A1.67,1.67,0,0,1,15.13,18Z" style="fill:#fff"/><path d="M9.31,6.27A2.3,2.3,0,1,0,6,9.43a2.28,2.28,0,0,0,2.66,0l.44.45c.16.17.35.44.59.48h.08a.41.41,0,0,0,.33-.47.29.29,0,0,0,0-.13,1.48,1.48,0,0,0-.24-.26l-.61-.62A2.32,2.32,0,0,0,9.31,6.27ZM7.39,6h0a1.54,1.54,0,0,1,1.4,1,1.58,1.58,0,0,1-.44,1.7,1.52,1.52,0,0,1-1.78.15A1.54,1.54,0,0,1,7.39,6Z" style="fill:#fff"/><path d="M7.36,6.9a.6.6,0,0,1,.38.17A.88.88,0,0,1,8,7.53a.81.81,0,0,0,0,.31A.3.3,0,0,0,8.23,8h0a.33.33,0,0,0,.31-.29,1.57,1.57,0,0,0-.07-.57,1.5,1.5,0,0,0-.59-.79C7.65,6.21,7.13,6,7,6.46a.38.38,0,0,0,.29.44Z" style="fill:#fff"/></svg>