<svg id="Layer_3" data-name="Layer 3" xmlns="http://www.w3.org/2000/svg" viewBox="0 0 27 23"><path d="M9.32,18.73a3.32,3.32,0,0,1-1.72,3,2.54,2.54,0,0,1-3.06-.7A3.6,3.6,0,0,1,4,17.47a2.83,2.83,0,0,1,2.59-2,2.62,2.62,0,0,1,2,1A3.59,3.59,0,0,1,9.32,18.73Z" style="fill:none;stroke:#ffffff;stroke-linecap:round;stroke-linejoin:round;stroke-width:1.8961059412124202px"/><path d="M22.67,18.73a3.3,3.3,0,0,1-1.68,3,2.53,2.53,0,0,1-3.06-.7,3.63,3.63,0,0,1-.62-3.54,2.85,2.85,0,0,1,2.6-2,2.61,2.61,0,0,1,2,1A3.52,3.52,0,0,1,22.67,18.73Z" style="fill:none;stroke:#ffffff;stroke-linecap:round;stroke-linejoin:round;stroke-width:1.8961059412124202px"/><path d="M16.74,19.8a1.12,1.12,0,0,0,0-2.22ZM9.31,17.58a1.12,1.12,0,0,0,0,2.22Zm6.44,1.15a1,1,0,0,0,2,0Zm2-7.81a1,1,0,1,0-2,0Zm-.95,6.65a1.12,1.12,0,0,0,0,2.22Zm.33,2.22a1.12,1.12,0,0,0,0-2.22Zm5.6-2.22a1.12,1.12,0,0,0,0,2.22Zm3-2.36h.95V15ZM26,10.67a1,1,0,0,0-1.09-.89h-.1A1.09,1.09,0,0,0,24,11.07ZM16.77,2.82a1.06,1.06,0,0,0-1,1.11h0a1.06,1.06,0,0,0,1,1.12Zm4.74,1.11V5.05h0Zm3,3.47h-.95v.23Zm-.42,3.66a1,1,0,0,0,1.05,1h.1A1.1,1.1,0,0,0,26,10.72ZM17.71,3.94a1,1,0,1,0-2,0Zm-2,6.94a1,1,0,1,0,2,0Zm0-6.94a1,1,0,1,0,2,0Zm1-1.19ZM15.31,1.16V2.27h0Zm-12.59,0V2.27h0ZM1.32,2.75Zm0,14.34Zm1.4,1.64V17.58h0Zm.95,1.11a1.12,1.12,0,0,0,0-2.22ZM16.74,9.77a1.12,1.12,0,0,0,0,2.22ZM25,12a1.12,1.12,0,0,0,1-1.25,1.13,1.13,0,0,0-1-1Zm-8.21,5.59H9.31V19.8h7.43Zm.94,1.11V10.88H15.75v7.85Zm-.94,1.11h.32V17.58h-.32Zm5.93,0a3.76,3.76,0,0,0,2.84-1.36l-1.42-1.55a1.92,1.92,0,0,1-1.4.69Zm2.84-1.36a5,5,0,0,0,1.16-3.23h-2a2.55,2.55,0,0,1-.59,1.67ZM26.64,15,26,10.68,24,11.07l.69,4.34Zm-9.9-10h4.73V2.83H16.74Zm4.73,0a1.8,1.8,0,0,1,1.41.67l1.41-1.55a3.64,3.64,0,0,0-2.84-1.34Zm1.41.67a2.49,2.49,0,0,1,.56,1.66l2,.07a4.88,4.88,0,0,0-1.12-3.28Zm.58,1.9L24,11.08,26,10.69,25.4,7.23ZM15.74,3.94v6.94h2V3.94Zm2,0V2.75h-2V3.94Zm0-1.19A2.55,2.55,0,0,0,15.32.05h0V2.27a.45.45,0,0,1,.4.49ZM15.31.05H2.72V2.27H15.31ZM2.7.05A2.21,2.21,0,0,0,1,.84L2.43,2.4a.37.37,0,0,1,.28-.13ZM1,.84a3,3,0,0,0-.7,1.9h2a.59.59,0,0,1,.13-.37Zm-.7,1.9V17.07h2V2.75Zm0,14.34A3,3,0,0,0,1,19l1.4-1.54a.57.57,0,0,1-.13-.36ZM1,19a2.25,2.25,0,0,0,1.7.79V17.55a.41.41,0,0,1-.28-.13Zm1.69.79h.95V17.58H2.72Zm14-7.8H25V9.77H16.74Z" style="fill:#ffffff"/><path d="M6,11.13A4.44,4.44,0,0,1,5,9a4.84,4.84,0,0,1,.21-2.44,4.19,4.19,0,0,1,1.34-1.9,3.22,3.22,0,0,1,4,0,4.21,4.21,0,0,1,1.35,1.9A4.84,4.84,0,0,1,12.15,9a4.44,4.44,0,0,1-1,2.16,3.29,3.29,0,0,1-5.15,0Z" style="fill:none;stroke:#ffffff;stroke-linecap:round;stroke-linejoin:round;stroke-width:0.9480529706062101px"/><path d="M8.56,5.37a.49.49,0,0,0-.4.55.48.48,0,0,0,.46.47h.06ZM9.63,7a.43.43,0,0,0,.54.29l.05,0a.53.53,0,0,0,.23-.66Zm1.89,3.62a.41.41,0,0,0-.59,0l0,0a.53.53,0,0,0,0,.72Zm1.39,3a.42.42,0,0,0,.58.06l.06-.06a.57.57,0,0,0,0-.72ZM8.68,6.38a1,1,0,0,1,1,.67l.83-.39A1.89,1.89,0,0,0,8.63,5.38Zm2.25,5,2,2.27.64-.71-2.06-2.29Z" style="fill:#ffffff"/></svg>