<svg id="Layer_1" data-name="Layer 1" xmlns="http://www.w3.org/2000/svg" viewBox="0 0 28 28"><title>tasks</title><path d="M4,19.61H7.54a1.8,1.8,0,0,1,1.75,1.65v4a1.83,1.83,0,0,1-1.56,1.86H4a1.8,1.8,0,0,1-1.75-1.65v-4a1.83,1.83,0,0,1,1.56-1.86Zm21.13,1.87a1.87,1.87,0,0,1,0,3.74H14.59a1.87,1.87,0,0,1,0-3.74Zm-17.61,0H4v3.74H7.54Zm0-11.21a1.82,1.82,0,0,1,1.76,1.87v3.74a1.82,1.82,0,0,1-1.76,1.87H4a1.82,1.82,0,0,1-1.76-1.87V12.14A1.82,1.82,0,0,1,4,10.27Zm17.61,1.87a1.88,1.88,0,0,1,.21,3.72H14.59a1.88,1.88,0,0,1-.21-3.72H25.16Zm-17.61,0H4v3.74H7.54ZM8.91,1.36A1.47,1.47,0,0,1,9,3.18l-.13.16L4.52,8a1.28,1.28,0,0,1-.93.41,1.27,1.27,0,0,1-.78-.27L2.65,8,.89,6.13a1.46,1.46,0,0,1,0-2A1.27,1.27,0,0,1,2.61,4l.15.14L3.58,5,7,1.36A1.27,1.27,0,0,1,8.91,1.36ZM25.16,2.8a1.82,1.82,0,0,1,1.76,1.87,1.83,1.83,0,0,1-1.56,1.86H14.59a1.82,1.82,0,0,1-1.76-1.87,1.83,1.83,0,0,1,1.56-1.86H25.16Z" style="fill:#fff"/></svg>