<svg id="Layer_2" data-name="Layer 2" xmlns="http://www.w3.org/2000/svg" viewBox="0 0 21 21"><path d="M9.65,2.38,9,1.66a.48.48,0,0,0-.68,0h0L3.83,6.15,2.06,4.35a.49.49,0,0,0-.69,0h0l-.71.72a.49.49,0,0,0,0,.69h0L3.13,8.3a1,1,0,0,0,1.4,0L9.65,3.09A.56.56,0,0,0,9.65,2.38Z" style="fill:#fff"/><path d="M19.83,7.24h-8.7a.67.67,0,0,1-.67-.67h0V5.2a.69.69,0,0,1,.67-.68h8.7a.69.69,0,0,1,.67.68V6.56a.67.67,0,0,1-.66.68h0Z" style="fill:#fff"/><path d="M19.83,13.37H9.12a.69.69,0,0,1-.67-.68V11.32a.69.69,0,0,1,.67-.68H19.83a.69.69,0,0,1,.67.68v1.37A.69.69,0,0,1,19.83,13.37Z" style="fill:#fff"/><path d="M19.83,19.49H9.12a.69.69,0,0,1-.67-.68V17.45a.67.67,0,0,1,.66-.68H19.83a.67.67,0,0,1,.67.67h0V18.8A.69.69,0,0,1,19.83,19.49Z" style="fill:#fff"/><path d="M4.66,13a.22.22,0,1,1,.22-.22.22.22,0,0,1-.22.22h0m.22-1.32.28.36H4.52V11.7M2.93,13a.22.22,0,1,1,.22-.22.22.22,0,0,1-.22.22h0m2-1.54H4.52v-.59h-2a.29.29,0,0,0-.29.29V12.8H2.5a.43.43,0,0,0,.86,0h.87a.44.44,0,0,0,.36.51A.45.45,0,0,0,5.1,13v0a.29.29,0,0,0,0-.13h.29v-.74Z" style="fill:#fff"/><path d="M4.66,19.16a.22.22,0,0,1-.21-.22.22.22,0,0,1,.15-.26h0a.22.22,0,0,1,.26.17.14.14,0,0,1,0,.09.22.22,0,0,1-.22.22m.22-1.33.28.37H4.52v-.37M2.93,19.16A.21.21,0,0,1,2.72,19h0a.21.21,0,0,1,.2-.22h0a.22.22,0,0,1,0,.44m2-1.55h-.4V17h-2a.29.29,0,0,0-.29.29h0v1.62H2.5a.43.43,0,1,0,.86,0h.87a.44.44,0,0,0,.34.52.44.44,0,0,0,.52-.33.38.38,0,0,0,0-.1.29.29,0,0,0,0-.13h.29V18.2Z" style="fill:#fff"/></svg>