<svg id="Layer_2" data-name="Layer 2" xmlns="http://www.w3.org/2000/svg" viewBox="0 0 21 21"><path d="M18,6H15.48V2.3a.69.69,0,0,0-.62-.75H1.13A.7.7,0,0,0,.5,2.3V15.71a.69.69,0,0,0,.62.75h.63V3H14.24v8.72a4.24,4.24,0,0,1,1-.15h.27v-4H18A1.36,1.36,0,0,1,19.25,9h0v.76H16.74v1.48h2.51V15H17.74a2.7,2.7,0,0,0-3.27-1.95,2.64,2.64,0,0,0-.47.17A3.16,3.16,0,0,0,12.53,15H8.27a2.84,2.84,0,0,0-2.61-2.06C3.92,13,2.6,15,3.1,17.11A3,3,0,0,0,5,19.32c1.75.57,3.35-.87,3.5-2.85h3.94a3,3,0,0,0,3,3h.1a3.12,3.12,0,0,0,2.47-3h1.91a.7.7,0,0,0,.63-.75V9A2.78,2.78,0,0,0,18,6ZM5.86,17.94h-.2a1.61,1.61,0,0,1-1.54-1.68h0A1.7,1.7,0,0,1,5.47,14.4h.19a1.62,1.62,0,0,1,1.55,1.69h0A1.69,1.69,0,0,1,5.86,17.94Zm9.28,0h0a1.67,1.67,0,0,1-1.4-1.86,1.61,1.61,0,0,1,1.54-1.68h0a1.67,1.67,0,0,1,1.41,1.78A1.67,1.67,0,0,1,15.14,17.94Z" style="fill:#fff"/><path d="M7.64,6.51v5.05M5.13,9h5" style="fill:#fff;stroke:#fff;stroke-linecap:round;stroke-linejoin:round;stroke-width:1.354902982711792px"/></svg>