<svg id="Layer_3" data-name="Layer 3" xmlns="http://www.w3.org/2000/svg" viewBox="0 0 26.4 23"><path d="M9,18.7a3.4,3.4,0,0,1-1.7,3A2.62,2.62,0,0,1,4.2,21a3.59,3.59,0,0,1-.5-3.6,2.89,2.89,0,0,1,2.6-2,2.61,2.61,0,0,1,2,1A3.89,3.89,0,0,1,9,18.7Z" style="fill:none;stroke:#ffffff;stroke-linecap:round;stroke-linejoin:round;stroke-width:1.8961000442504883px"/><path d="M22.4,18.7a3.4,3.4,0,0,1-1.7,3,2.62,2.62,0,0,1-3.1-.7,3.44,3.44,0,0,1-.6-3.5,3,3,0,0,1,2.6-2,2.61,2.61,0,0,1,2,1A3.49,3.49,0,0,1,22.4,18.7Z" style="fill:none;stroke:#ffffff;stroke-linecap:round;stroke-linejoin:round;stroke-width:1.8961000442504883px"/><path d="M16.4,19.8a1.22,1.22,0,0,0,1-1.3,1.28,1.28,0,0,0-1-1ZM9,17.6a1.22,1.22,0,0,0-1,1.3,1.28,1.28,0,0,0,1,1Zm6.4,1.1a1,1,0,0,0,2,0Zm2.1-7.8a1,1,0,1,0-2,0Zm-1,6.7a1.22,1.22,0,0,0-1,1.3,1.28,1.28,0,0,0,1,1Zm.3,2.2a1.22,1.22,0,0,0,1-1.3,1.28,1.28,0,0,0-1-1Zm5.6-2.2a1.22,1.22,0,0,0-1,1.3,1.28,1.28,0,0,0,1,1Zm3-2.4h1V15Zm.3-4.5a1.09,1.09,0,0,0-1.1-.9h-.1a1.07,1.07,0,0,0-.8,1.3ZM16.5,2.8a1,1,0,0,0-1,1.1h0a1,1,0,0,0,1,1.1h0Zm4.7,1.1V5h0Zm3,3.5h-1v.2Zm-.4,3.7a.94.94,0,0,0,1,1H25a1.17,1.17,0,0,0,.8-1.3ZM17.4,3.9a1,1,0,1,0-2,0Zm-2,7a1,1,0,0,0,2,0Zm0-7a1,1,0,1,0,2,0ZM15,1.2V2.3h0ZM2.4,1.2V2.3h0Zm0,17.5V17.6h0Zm1,1.1a1.22,1.22,0,0,0,1-1.3,1.28,1.28,0,0,0-1-1Zm13-10a1.22,1.22,0,0,0-1,1.3,1.28,1.28,0,0,0,1,1ZM24.7,12a1.11,1.11,0,0,0,1-1.2h0a1.28,1.28,0,0,0-1-1Zm-8.2,5.6H9v2.2h7.4Zm.9,1.1V10.9h-2v7.8Zm-.9,1.1h.3V17.6h-.3Zm5.9,0a3.5,3.5,0,0,0,2.8-1.4l-1.4-1.5a1.91,1.91,0,0,1-1.4.7Zm2.9-1.3a4.9,4.9,0,0,0,1.2-3.2h-2a2.72,2.72,0,0,1-.6,1.7Zm1-3.5-.6-4.3-2,.4.7,4.3ZM16.4,5h4.7V2.8H16.4Zm4.8,0a1.62,1.62,0,0,1,1.4.7L24,4.1a3.41,3.41,0,0,0-2.8-1.3Zm1.4.7a2.72,2.72,0,0,1,.6,1.7l2,.1a5.46,5.46,0,0,0-1.1-3.3Zm.6,1.9.5,3.5,2-.4-.6-3.5ZM15.4,3.9v6.9h2V3.9Zm2,0V2.8h-2V4l2-.1Zm0-1.1A2.56,2.56,0,0,0,15,.1h0V2.3a.46.46,0,0,1,.4.5ZM15,.1H2.4V2.3H15ZM2.4.1A1.81,1.81,0,0,0,.7.8L2.1,2.4a.37.37,0,0,1,.3-.1ZM.7.8A3.41,3.41,0,0,0,0,2.7H2a.6.6,0,0,1,.1-.4ZM0,2.7V17H2V2.8ZM0,17.1A2.64,2.64,0,0,0,.7,19l1.4-1.5a.6.6,0,0,1-.1-.4ZM.7,19a2.14,2.14,0,0,0,1.7.8V17.6c-.1,0-.2-.1-.3-.1Zm1.7.8h1V17.6h-1Zm14-7.8h8.3V9.8H16.4Z" style="fill:#ffffff"/></svg>