<svg id="Layer_2" data-name="Layer 2" xmlns="http://www.w3.org/2000/svg" viewBox="0 0 24 24"><path id="Path_362" data-name="Path 362" d="M10.26,16.13v-6H9.54a15,15,0,0,0-1.48.9v.79c.43-.29,1.09-.7,1.42-.9h0v5.18h.77Zm1.37-1.47a1.79,1.79,0,0,0,1.91,1.59C15,16.25,15.79,15,15.79,13c0-2.17-.89-3-2.19-3a2,2,0,0,0-2,1.87v.15a1.87,1.87,0,0,0,1.74,2h.14A1.56,1.56,0,0,0,15,13.15h0c0,1.48-.51,2.43-1.46,2.43a1.12,1.12,0,0,1-1.19-.89h-.69ZM15,12.07a1.32,1.32,0,0,1-1.31,1.33h0a1.24,1.24,0,0,1-1.3-1.17v-.17a1.26,1.26,0,0,1,1.16-1.33h.14a1.26,1.26,0,0,1,1.31,1.19v.2Z" style="fill:#fcc400"/><path d="M18.78,3.09H17.63V2.6A.58.58,0,0,0,17.06,2V2a.58.58,0,0,0-.56.6v.45h-9V2.6A.57.57,0,0,0,6.94,2h0a.58.58,0,0,0-.52.63v.45H5.25A2.32,2.32,0,0,0,3,5.47V18.62A2.32,2.32,0,0,0,5.25,21H18.78A2.32,2.32,0,0,0,21,18.62V5.47A2.31,2.31,0,0,0,18.78,3.09Zm1.1,15.54a1.15,1.15,0,0,1-1.1,1.18H5.25a1.15,1.15,0,0,1-1.12-1.18V6.75H19.88Z" style="fill:#fcc400"/></svg>