<svg id="Layer_2" data-name="Layer 2" xmlns="http://www.w3.org/2000/svg" viewBox="0 0 24 24"><path d="M19.12,9.64A4.25,4.25,0,0,0,19,9a5.38,5.38,0,0,0,3-5h-.32a5.37,5.37,0,0,0-4.39,2.56,4.29,4.29,0,0,0-2.59-.77,6.4,6.4,0,0,0-.87.08,4.52,4.52,0,0,0-3.22-1.38,4.36,4.36,0,0,0-4.42,4A4.16,4.16,0,0,0,3,12.58a4.13,4.13,0,0,0,3.92,4.3H17.39a3.76,3.76,0,0,0,3.52-4A3.88,3.88,0,0,0,19.12,9.64ZM17.33,16.1H6.93a3.34,3.34,0,0,1-3.17-3.5v0A3.37,3.37,0,0,1,6.6,9.16l.33-.08V8.76a3.56,3.56,0,0,1,3.55-3.49h.11a3.8,3.8,0,0,1,2.8,1.28l.16.18.23-.05a3.54,3.54,0,0,1,.91-.11h.12A3.53,3.53,0,0,1,17,7.3a5.55,5.55,0,0,0-.42,2.27h.32a5.45,5.45,0,0,0,1.43-.26,2.88,2.88,0,0,1,.06.59v.22l.18.09a3.12,3.12,0,0,1,1.58,2.72A3,3,0,0,1,17.33,16.1Z" style="fill:#fcc400"/><path d="M9.28,10.6a.81.81,0,0,1,.73-.4.77.77,0,0,1,.53.24.8.8,0,0,1,.22.58h.62a1.22,1.22,0,0,0-.37-.94,1.41,1.41,0,0,0-1-.39,1.48,1.48,0,0,0-1.22.51,2.11,2.11,0,0,0-.43,1.32v.15A2.09,2.09,0,0,0,8.78,13a1.55,1.55,0,0,0,2.19.16,1,1,0,0,0,.41-.84h-.62a.62.62,0,0,1-.23.51A.82.82,0,0,1,10,13a.75.75,0,0,1-.71-.39A1.77,1.77,0,0,1,9,11.71v-.14A1.74,1.74,0,0,1,9.28,10.6Z" style="fill:#fcc400"/><path d="M13.69,9.68a1.5,1.5,0,0,0-1.25.54A2,2,0,0,0,12,11.57v.08A2,2,0,0,0,12.45,13a1.48,1.48,0,0,0,1.21.54A1.53,1.53,0,0,0,14.87,13a2,2,0,0,0,.44-1.35v-.08a2,2,0,0,0-.42-1.36A1.5,1.5,0,0,0,13.69,9.68Zm1,2a1.79,1.79,0,0,1-.25,1,.91.91,0,0,1-1.26.21h0a.8.8,0,0,1-.21-.2,1.79,1.79,0,0,1-.25-1v-.07a1.83,1.83,0,0,1,.25-1,.9.9,0,0,1,1.24-.23.84.84,0,0,1,.23.23,1.83,1.83,0,0,1,.25,1Z" style="fill:#fcc400"/><path d="M16.33,13.62a3.62,3.62,0,0,0,.22-.32.55.55,0,0,0,.07-.25.39.39,0,0,0-.13-.32.49.49,0,0,0-.35-.13.54.54,0,0,0-.38.15.48.48,0,0,0-.14.34h.22a.35.35,0,0,1,.08-.22.24.24,0,0,1,.22-.09.23.23,0,0,1,.19.07.26.26,0,0,1,.07.19.46.46,0,0,1,0,.2,1.28,1.28,0,0,1-.2.26l-.53.63v.15h1v-.17h-.74Z" style="fill:#fcc400"/></svg>