<svg id="Layer_2" data-name="Layer 2" xmlns="http://www.w3.org/2000/svg" viewBox="0 0 24 24"><path d="M18.5,21H5.41A2.43,2.43,0,0,1,3,18.56V5.46A2.42,2.42,0,0,1,5.41,3H12a.56.56,0,0,1,0,1.12H5.41a1.3,1.3,0,0,0-1.3,1.3v13.1a1.31,1.31,0,0,0,1.3,1.31H18.5a1.3,1.3,0,0,0,1.3-1.3V12a.56.56,0,1,1,1.12,0v6.56A2.42,2.42,0,0,1,18.5,21Z" style="fill:#fcc400"/><path d="M8.22,17.86a1.1,1.1,0,0,1-1-.76,1,1,0,0,1,0-.65L8,13.6a2.57,2.57,0,0,1,.66-1.11l9-9h0a2.73,2.73,0,0,1,2.81-.64,2.94,2.94,0,0,1,1.91,2.55A2,2,0,0,1,21.8,7l-9.29,9.29A2.61,2.61,0,0,1,11.4,17l-2.87.84A1.12,1.12,0,0,1,8.22,17.86Zm0-1.2h0ZM18.51,4.32l-9,9a1.33,1.33,0,0,0-.35.59L8.39,16.6l2.67-.78a1.31,1.31,0,0,0,.6-.35L21,6.18a.79.79,0,0,0,.24-.65A1.76,1.76,0,0,0,20.08,4,1.52,1.52,0,0,0,18.51,4.32Z" style="fill:#fcc400"/></svg>