<svg width="30" height="30" viewBox="0 0 30 30" fill="none" xmlns="http://www.w3.org/2000/svg">
<circle cx="15" cy="15" r="15" fill="#FDC309"/>
<path d="M15 8.35999C11.3333 8.35999 8.33333 11.3533 8.33333 15.04C8.33333 18.3733 10.7733 21.14 13.96 21.64V16.9733H12.2667V15.04H13.96V13.5667C13.96 11.8933 14.9533 10.9733 16.48 10.9733C17.2067 10.9733 17.9667 11.1 17.9667 11.1V12.7467H17.1267C16.3 12.7467 16.04 13.26 16.04 13.7867V15.04H17.8933L17.5933 16.9733H16.04V21.64C17.6109 21.3919 19.0415 20.5903 20.0733 19.38C21.1051 18.1697 21.6703 16.6304 21.6667 15.04C21.6667 11.3533 18.6667 8.35999 15 8.35999Z" fill="white"/>
</svg>
