<svg id="Layer_3" data-name="Layer 3" xmlns="http://www.w3.org/2000/svg" viewBox="0 0 21.3 23"><path d="M4.7,20.6h0l-.1.1H4.5a1,1,0,0,1-1.3-.1,1,1,0,0,1-.1-1.3v-.1l5.7-5.7c.1,0,.1,0,.2-.1l2.3-2.3a.35.35,0,0,0,.1-.2l3.8-3.8,1.4,1.4C11.6,13.7,4.7,20.6,4.7,20.6Z" style="fill:#fdc309"/><path d="M8.8,12.8l-3-3h.1A.1.1,0,0,0,6,9.7c.1,0,.1-.1.2-.1a.1.1,0,0,0,.1-.1c.1,0,.1-.1.2-.2a.1.1,0,0,0,.1-.1c.1,0,.1-.1.2-.2l.3-.3.1-.1c.1-.1.1-.2.2-.2a.1.1,0,0,1,.1-.1A.37.37,0,0,1,7.6,8h0l3,3Z" style="fill:#fdc309"/><path d="M.1,4.9,2,6.7c0,.1.1.1.2.1l2.1-.1a.32.32,0,0,0,.3-.3l.1-2.1c0-.1,0-.2-.1-.2L2.8,2.3a3.4,3.4,0,0,1,1-.1A3.86,3.86,0,0,1,6.5,3.3a3.78,3.78,0,0,1,.9,3.9v.2a10.59,10.59,0,0,1-1,1.2,4.44,4.44,0,0,1-1.1.8H5.1a3.08,3.08,0,0,1-1.3.3A4,4,0,0,1,1.1,8.6,3.92,3.92,0,0,1,.1,4.9Z" style="fill:#fdc309"/><path d="M17.1,15.5a3.86,3.86,0,0,0-2.7,1.1,4.44,4.44,0,0,0-.8,1.1V18a3.71,3.71,0,0,0,.9,4,3.82,3.82,0,0,0,5.4-5.4A4.51,4.51,0,0,0,17.1,15.5Zm2.1,3.3-.5,1.9a.22.22,0,0,1-.2.2l-1.9.5h-.1c-.1,0-.1,0-.2-.1L15,19.9a.37.37,0,0,1-.1-.3l.5-1.9a.22.22,0,0,1,.2-.2l1.9-.5a.37.37,0,0,1,.3.1l1.4,1.4C19.2,18.6,19.3,18.7,19.2,18.8Z" style="fill:#fdc309"/><path d="M15,15.3l-2-2-1.9,1.9,2.1,2.1a3.6,3.6,0,0,1,.8-1.2A3.51,3.51,0,0,1,15,15.3Z" style="fill:#fdc309"/><path d="M12,4.1l.7.9,2.7,1.4.1.1,1.9,1.9.1.1,2.9,5.7,1-.8L20,6.5,15.4,2l-.9-.2a.35.35,0,0,1-.2-.1L13.4.1,9.9,3.5l2,.5A.1.1,0,0,1,12,4.1Z" style="fill:#fdc309"/><polygon points="15.9 18.1 15.5 19.7 16.7 20.8 18.2 20.4 18.6 18.8 17.5 17.7 15.9 18.1" style="fill:#fdc309"/></svg>