<svg id="Layer_1" data-name="Layer 1" xmlns="http://www.w3.org/2000/svg" viewBox="0 0 41.8 39.25"><path d="M41.29,29.8H40V16.58a1.28,1.28,0,0,0-1.28-1.28H31.48V2.07A1.28,1.28,0,0,0,30.19.79H13.13a1.28,1.28,0,0,0-1.29,1.28V15.3H4.59a1.28,1.28,0,0,0-1.28,1.28V29.8H2A1.3,1.3,0,0,0,.75,31.08v7.68A1.28,1.28,0,0,0,2,40H7.15a1.28,1.28,0,0,0,1.28-1.28h0V37.48h9.39v1.28A1.28,1.28,0,0,0,19.1,40h5.11a1.28,1.28,0,0,0,1.28-1.28h0V37.48h9.38v1.28A1.28,1.28,0,0,0,36.16,40h5.11a1.28,1.28,0,0,0,1.28-1.28h0V31.08a1.28,1.28,0,0,0-1.28-1.28ZM37.46,17.85v12H22.94V17.85Zm-23-14.5h14.5v12H14.41ZM5.88,17.86h14.5v12H5.89ZM40,37.48H37.46V36.2a1.28,1.28,0,0,0-1.28-1.28h-12a1.28,1.28,0,0,0-1.28,1.28h0v1.28H20.38V36.2a1.28,1.28,0,0,0-1.28-1.28h-12A1.28,1.28,0,0,0,5.86,36.2h0v1.28H3.31V32.37H40Z" transform="translate(-0.75 -0.79)" style="fill:#424242"/></svg>