<svg id="Layer_2" data-name="Layer 2" xmlns="http://www.w3.org/2000/svg" viewBox="0 0 24 24"><path d="M20.46,16.3h-.55V10.24a.57.57,0,0,0-.54-.59H16.23V3.59A.56.56,0,0,0,15.7,3H8.35a.58.58,0,0,0-.55.59V9.65H4.66a.58.58,0,0,0-.53.59V16.3H3.56a.58.58,0,0,0-.56.58H3V20.4a.57.57,0,0,0,.55.59H5.77a.58.58,0,0,0,.55-.59h0v-.59h4v.59a.57.57,0,0,0,.55.59h2.2a.57.57,0,0,0,.55-.59h0v-.59h4v.59a.57.57,0,0,0,.54.59h2.2a.58.58,0,0,0,.56-.58h0V16.9A.59.59,0,0,0,20.46,16.3Zm-1.65-5.47V16.3H12.56V10.83ZM8.89,4.18h6.24V9.65H8.89ZM5.21,10.83h6.25V16.3H5.21Zm14.7,9h-1.1v-.58a.58.58,0,0,0-.56-.58H13.11a.57.57,0,0,0-.55.59h0v.58h-1.1v-.59a.58.58,0,0,0-.55-.58H5.77a.57.57,0,0,0-.56.58h0v.58H4.13V17.48H19.91Z" style="fill:#616161"/></svg>