<svg id="Layer_2" data-name="Layer 2" xmlns="http://www.w3.org/2000/svg" viewBox="0 0 24 24"><path d="M3.21,10.34,3,10.52V19.9A1.1,1.1,0,0,0,4.1,21h6a.11.11,0,0,0,.11-.11h0V16.46a1.22,1.22,0,0,1,.47-1A1.85,1.85,0,0,1,13.8,16.8v4.09a.11.11,0,0,0,.11.11h6A1.11,1.11,0,0,0,21,19.9V10.52l-.21-.18-8.4-7.2a.6.6,0,0,0-.78,0m0,0-8.4,7.2h0M19.69,19.8H15.11a.11.11,0,0,1-.11-.11h0V16.46a2.44,2.44,0,0,0-1.09-2.06A3.06,3.06,0,0,0,9,16.8v2.89a.11.11,0,0,1-.11.11H4.31a.11.11,0,0,1-.11-.11h0V11.13a.14.14,0,0,1,0-.09l7.69-6.59a.12.12,0,0,1,.14,0L19.76,11a.14.14,0,0,1,0,.09v8.56a.12.12,0,0,1-.06.15Z" style="fill:#fff"/></svg>