<svg width="30" height="30" viewBox="0 0 30 30" fill="none" xmlns="http://www.w3.org/2000/svg">
<circle cx="15" cy="15" r="15" fill="#FDC309"/>
<g clip-path="url(#clip0_675_846)">
<path d="M15 7C10.5813 7 7 10.5813 7 15C7 19.4187 10.5813 23 15 23C19.4187 23 23 19.4187 23 15C23 10.5813 19.4187 7 15 7ZM12.7625 18.3469H11.2031V13.3562H12.7625V18.3469ZM11.9406 12.7312H11.9281C11.3625 12.7312 10.9969 12.35 10.9969 11.8656C10.9969 11.3719 11.375 11 11.95 11C12.525 11 12.8781 11.3719 12.8906 11.8656C12.8938 12.3469 12.5281 12.7312 11.9406 12.7312ZM19 18.3469H17.2312V15.7656C17.2312 15.0906 16.9563 14.6281 16.3469 14.6281C15.8813 14.6281 15.6219 14.9406 15.5031 15.2406C15.4594 15.3469 15.4656 15.4969 15.4656 15.65V18.3469H13.7125C13.7125 18.3469 13.7344 13.7719 13.7125 13.3562H15.4656V14.1406C15.5687 13.7969 16.1281 13.3094 17.0219 13.3094C18.1313 13.3094 19 14.0281 19 15.5719V18.3469Z" fill="white"/>
</g>
<defs>
<clipPath id="clip0_675_846">
<rect width="16" height="16" fill="white" transform="translate(7 7)"/>
</clipPath>
</defs>
</svg>
