<svg id="Layer_2" data-name="Layer 2" xmlns="http://www.w3.org/2000/svg" viewBox="0 0 24 24"><path d="M12,21h-.13a1,1,0,0,1-.75-.49c-1.26-1.7-5.45-7.64-5.45-11.44A6.21,6.21,0,0,1,12,3a6.5,6.5,0,0,1,4.65,1.92,5.77,5.77,0,0,1,1.68,4.17c0,2.54-1.82,6.38-5.42,11.4a.58.58,0,0,1-.23.26A1,1,0,0,1,12,21ZM12,3.88A5.33,5.33,0,0,0,6.55,9.07c0,2.81,2.74,7.52,5.3,11,.06.08.11.1.12.1h.09l.07-.07h0c4.39-6.1,5.31-9.32,5.31-11A4.89,4.89,0,0,0,16,5.56,5.64,5.64,0,0,0,12,3.88Z" style="fill:#fff"/><path d="M12,11.46a2.39,2.39,0,1,1,2.39-2.39h0A2.4,2.4,0,0,1,12,11.46Zm0-3.88a1.5,1.5,0,1,0,1.5,1.5h0A1.5,1.5,0,0,0,12,7.57h0Z" style="fill:#fff"/></svg>