<svg id="Layer_2" data-name="Layer 2" xmlns="http://www.w3.org/2000/svg" viewBox="0 0 24 24"><rect x="9.83" y="9.71" width="9.19" height="1.23" rx="0.29" style="fill:#fff"/><rect x="9.83" y="13.25" width="9.19" height="1.23" rx="0.29" style="fill:#fff"/><rect x="9.83" y="16.83" width="9.19" height="1.23" rx="0.29" style="fill:#fff"/><path d="M18.78,3.29H7.5m0,0H5.25A2.32,2.32,0,0,0,3,5.67V18.82A2.32,2.32,0,0,0,5.25,21.2H18.78A2.31,2.31,0,0,0,21,18.82V5.67a2.31,2.31,0,0,0-2.22-2.38m1.35,15.2A1.15,1.15,0,0,1,19,19.67H5.51A1.14,1.14,0,0,1,4.38,18.5h0V6.6H20.13Z" style="fill:#fff"/><path d="M7.72,11.11a.18.18,0,1,1,.18-.18.18.18,0,0,1-.18.18h0M7.9,10l.23.3H7.6V10M6.28,11.11a.18.18,0,1,1,.18-.18.18.18,0,0,1-.18.18h0M8,9.85H7.6V9.37H5.92a.24.24,0,0,0-.24.24v1.32h.24a.36.36,0,0,0,.72,0h.72a.36.36,0,0,0,.72,0h.24v-.6Z" style="fill:#fff"/><path d="M7.73,18.12a.18.18,0,1,1,.18-.18.18.18,0,0,1-.18.18h0M7.91,17l.24.3H7.61V17M6.3,18.12a.18.18,0,0,1,0-.36h0a.18.18,0,1,1,0,.36M8,16.86H7.61v-.48H5.94a.24.24,0,0,0-.24.24v1.32h.24a.35.35,0,0,0,.3.41.35.35,0,0,0,.41-.29.24.24,0,0,0,0-.12h.72a.36.36,0,0,0,.72,0h.24v-.6Z" style="fill:#fff"/><path d="M7.72,14.63a.18.18,0,1,1,.18-.18.18.18,0,0,1-.18.18h0m.18-1.08.23.3H7.6v-.3M6.28,14.63a.18.18,0,1,1,.18-.18.18.18,0,0,1-.18.18h0M8,13.37H7.6v-.48H5.92a.24.24,0,0,0-.24.24v1.32h.24a.36.36,0,1,0,.72,0h.72a.36.36,0,0,0,.72,0h.24v-.6Z" style="fill:#fff"/></svg>