<svg id="Layer_2" data-name="Layer 2" xmlns="http://www.w3.org/2000/svg" viewBox="0 0 28 28"><title>notification</title><path d="M23.83,15.49l.33.71a4.59,4.59,0,0,1-3.33,6.45l-.2,0a35.63,35.63,0,0,1-13,0,4.45,4.45,0,0,1-3.11-6.5l.28-.52A9.77,9.77,0,0,0,6,11V9.36A7.33,7.33,0,0,1,10.09,2.8a9.46,9.46,0,0,1,8.18-.12l.26.12A7.54,7.54,0,0,1,22.9,9.64v1.64A10,10,0,0,0,23.83,15.49Z" style="fill:none;stroke:#fdc309;stroke-width:2px"/><path d="M17.9,23.3a2.33,2.33,0,0,1-.29,1.1,3,3,0,0,1-.81.94,4,4,0,0,1-1.22.63,4.79,4.79,0,0,1-2.87,0,4,4,0,0,1-1.22-.63,3,3,0,0,1-.81-.94,2.32,2.32,0,0,1-.29-1.1" style="fill:none;stroke:#fdc309;stroke-linecap:round;stroke-width:2px"/></svg>