<svg id="Layer_1" data-name="Layer 1" xmlns="http://www.w3.org/2000/svg" viewBox="0 0 28 28"><path d="M19.83,15.17a5.83,5.83,0,1,1-6.41-5.81V8.75H11.67V7h4.66V8.75H14.58v.61a5.78,5.78,0,0,1,3.11,1.29l.42-.42-.82-.83,1.24-1.23L21,10.64l-1.24,1.24-.82-.83-.42.42A5.85,5.85,0,0,1,19.83,15.17ZM9.66,14.58h1.42v1.17H9.66a4.38,4.38,0,0,0,3.76,3.75V18.08h1.16V19.5a4.38,4.38,0,0,0,3.76-3.75H16.92V14.58h1.42a4.38,4.38,0,0,0-3.76-3.75v1.42H13.42V10.83A4.38,4.38,0,0,0,9.66,14.58ZM14,14a1.17,1.17,0,1,1,0,2.33l-2.33,1.75,1.16-2.91A1.17,1.17,0,0,1,14,14ZM7.29,12.25V9.92A8.17,8.17,0,0,0,14,22.75h1.6a8.1,8.1,0,0,0,8-8.17A9.63,9.63,0,1,1,6.13,9h-2L5.54,7.58H8.75v3.21Z" style="fill:#efc32c"/></svg>