<svg id="Layer_2" data-name="Layer 2" xmlns="http://www.w3.org/2000/svg" viewBox="0 0 24 24"><path d="M12.5,11H4.09A1.13,1.13,0,0,0,3,12.12H3v4.61a1.12,1.12,0,0,0,1.08,1.15H12.5a1.12,1.12,0,0,0,1.09-1.15V12.12A1.13,1.13,0,0,0,12.5,11ZM13,16.73a.5.5,0,0,1-.49.52H4.09a.51.51,0,0,1-.5-.52V14.46H13Zm0-2.9H3.6V13H5.41a.31.31,0,0,0,.3-.31.32.32,0,0,0-.3-.32H3.6v-.22a.5.5,0,0,1,.49-.52H12.5a.5.5,0,0,1,.49.52v.22H6.44a.31.31,0,0,0-.3.32.3.3,0,0,0,.3.31H13Z" style="fill:#fcc400;stroke:#fcc400;stroke-miterlimit:10;stroke-width:0.25px"/><path d="M20.7,6.15H6.84a.32.32,0,0,0-.34.31v3.71a.34.34,0,0,0,.68,0V8.71A2.38,2.38,0,0,0,9.27,6.78h9.28a2.21,2.21,0,0,0,1.83,1.93v2.65a2.21,2.21,0,0,0-1.83,1.93H14.36a.32.32,0,0,0-.27.36.34.34,0,0,0,.27.28H20.7a.31.31,0,0,0,.3-.32h0V6.46a.3.3,0,0,0-.3-.31ZM7.18,8.07V6.78H8.57A1.7,1.7,0,0,1,7.18,8.07ZM20.4,13.29H19.17A1.6,1.6,0,0,1,20.4,12Zm0-5.22a1.62,1.62,0,0,1-1.23-1.29H20.4Z" style="fill:#fcc400;stroke:#fcc400;stroke-miterlimit:10;stroke-width:0.25px"/><path d="M14.29,11.61a.3.3,0,0,0-.25.33v0h0a.32.32,0,0,0,.34.27h0A2.41,2.41,0,0,0,16.49,10a2.55,2.55,0,0,0-2.76-2.26A2.57,2.57,0,0,0,11,10a.49.49,0,0,0,0,.17.31.31,0,0,0,.33.29.32.32,0,0,0,.27-.35h0V10c0-.9,1-1.63,2.17-1.63S15.9,9.14,15.9,10A1.73,1.73,0,0,1,14.29,11.61Z" style="fill:#fcc400;stroke:#fcc400;stroke-miterlimit:10;stroke-width:0.25px"/><path d="M4.36,15.85H6.27a.3.3,0,0,0,.31-.29h0a.31.31,0,0,0-.28-.34h-2a.32.32,0,0,0-.25.37.3.3,0,0,0,.27.27Z" style="fill:#fcc400"/></svg>