<svg id="Layer_3" data-name="Layer 3" xmlns="http://www.w3.org/2000/svg" viewBox="0 0 20 23"><path d="M10.4,16.4H3a.4.4,0,1,0,0,.8h7.4a.4.4,0,1,0,0-.8Z" style="fill:#fcc400"/><path d="M10.4,18H3a.4.4,0,1,0,0,.8h7.4a.4.4,0,1,0,0-.8Z" style="fill:#fcc400"/><path d="M8.2,6.3c1.1,0,1.7.4,1.7.9a.73.73,0,0,0,.2.6,1,1,0,0,0,.7.2.71.71,0,0,0,.8-.8c0-1.3-1.1-2.3-2.8-2.6V3.5a.73.73,0,0,0-.2-.6c-.2-.2-.2-.2-.4-.2a.71.71,0,0,0-.8.8V4.6A3,3,0,0,0,4.6,7.2C4.6,8.7,6.1,10,8.2,10c1.1,0,1.7.4,1.7.9s-.6.9-1.7.9-1.7-.4-1.7-.9a.73.73,0,0,0-.2-.6.62.62,0,0,0-.7-.4.73.73,0,0,0-.6.2c-.2.2-.4.4-.4.6,0,1.3,1.1,2.3,2.8,2.6v1.1a.73.73,0,0,0,.2.6c.2,0,.4.2.6.2a.71.71,0,0,0,.8-.8V13.3a3,3,0,0,0,2.8-2.6c0-1.5-1.5-2.8-3.6-2.8-1.1.1-1.7-.3-1.7-.7S7.1,6.3,8.2,6.3Z" style="fill:#fcc400"/><path d="M16,15.2V8.5h2.6a.37.37,0,0,0,.3-.1c.1-.1.1-.1.1-.2v-6A1.9,1.9,0,0,0,18.5.9,1.9,1.9,0,0,0,17.2.4H2.3A1.9,1.9,0,0,0,1,.9,1.61,1.61,0,0,0,.4,2.2V22.3c0,.1,0,.1.1.2s.1.1.2.1H.8a.37.37,0,0,0,.3-.1l1.2-1.2,1.2,1.2a.37.37,0,0,0,.3.1.37.37,0,0,0,.3-.1l1.2-1.2,1.2,1.2a.37.37,0,0,0,.3.1.37.37,0,0,0,.3-.1l1.2-1.2,1.2,1.2a.5.5,0,0,0,.6,0l1.2-1.2,1.2,1.2a.5.5,0,0,0,.6,0l.6-.6a4.42,4.42,0,0,0,1.6.6,4.88,4.88,0,0,0,1.7-.1,3,3,0,0,0,.8-.4,3.53,3.53,0,0,0,1.6-1.8h0a3.21,3.21,0,0,0,.2-1.7,4.28,4.28,0,0,0-.5-1.6h0a3.19,3.19,0,0,0-1.8-1.4C16.8,15.4,16.5,15.3,16,15.2Zm0-13a1.14,1.14,0,0,1,.3-.8,1.22,1.22,0,0,1,1.6,0,1.14,1.14,0,0,1,.3.8V7.8H16ZM12.7,21.7l-1.2-1.2a.5.5,0,0,0-.6,0L9.7,21.7,8.5,20.5a.37.37,0,0,0-.3-.1.37.37,0,0,0-.3.1L6.7,21.7,5.5,20.5a.37.37,0,0,0-.3-.1.37.37,0,0,0-.3.1L3.7,21.7,2.5,20.5a.37.37,0,0,0-.3-.1.37.37,0,0,0-.3.1l-.9.9V2.2a1.14,1.14,0,0,1,.3-.8,2.24,2.24,0,0,1,1-.3H15.7a2.1,2.1,0,0,0-.4,1.1v13a3.55,3.55,0,0,0-1.9.8,3.77,3.77,0,0,0-1.2,1.6,4.71,4.71,0,0,0-.2,2,3.84,3.84,0,0,0,.9,1.8Zm2.9.2a3.37,3.37,0,0,1-1.7-.5,2.76,2.76,0,0,1-1.1-1.3,3.21,3.21,0,0,1-.2-1.7,2.92,2.92,0,0,1,2.3-2.3,2.46,2.46,0,0,1,1.7.2,3.48,3.48,0,0,1,1.3,1.1,3.37,3.37,0,0,1,.5,1.7,2.88,2.88,0,0,1-.9,2.1,2.56,2.56,0,0,1-1.9.7Z" style="fill:#fcc400;stroke:#fcc400;stroke-miterlimit:10;stroke-width:0.7437999844551086px"/><path d="M17.7,17.4a.5.5,0,0,0-.6,0l-1.8,1.8-.8-.8a.43.43,0,0,0-.6.6L15,20.1a.5.5,0,0,0,.6,0L17.7,18a.37.37,0,0,0,.1-.3c0-.2,0-.3-.1-.3Z" style="fill:#fcc400"/></svg>