<svg id="Layer_2" data-name="Layer 2" xmlns="http://www.w3.org/2000/svg" viewBox="0 0 24 24"><path d="M12,13.06a.68.68,0,0,0-.67.68v4.12a.67.67,0,1,0,1.34,0V13.74A.68.68,0,0,0,12,13.06Z" style="fill:#fcc400"/><path d="M12,10.31a.86.86,0,1,0,.84.86A.86.86,0,0,0,12,10.31Z" style="fill:#fcc400"/><path d="M4,20.62,11.4,5.89l1.06-2.11h-.91l7.39,14.73,1,2.11.46-.79H3.56a.53.53,0,0,0,0,1.05H20.45a.53.53,0,0,0,.45-.79L13.52,5.36,12.46,3.25a.53.53,0,0,0-.91,0L4.17,18,3.11,20.09C2.81,20.69,3.71,21.22,4,20.62Z" style="fill:#fcc400"/></svg>