<svg id="Layer_2" data-name="Layer 2" xmlns="http://www.w3.org/2000/svg" viewBox="0 0 24 24"><path d="M18.74,8.64H16.48V5.84a.57.57,0,0,0-.55-.57H3.56A.57.57,0,0,0,3,5.84V16a.57.57,0,0,0,.56.57h.57V6.4H15.37V13a3.28,3.28,0,0,1,.88-.12h.24V9.79h2.26a1.13,1.13,0,0,1,1.13,1.12h0v.57H17.62V12.6h2.26v2.81H18.51a2.54,2.54,0,0,0-3.35-1.33,2.51,2.51,0,0,0-1.33,1.33H10a2.53,2.53,0,0,0-2.34-1.56A2.47,2.47,0,0,0,5.34,17a2.46,2.46,0,0,0,4.81-.49H13.7a2.52,2.52,0,0,0,5,0h1.73A.56.56,0,0,0,21,16V10.89A2.26,2.26,0,0,0,18.74,8.64Zm-10.92,9H7.65a1.34,1.34,0,0,1-1.39-1.29A1.32,1.32,0,0,1,7.47,15h.18A1.33,1.33,0,0,1,9,16.25,1.35,1.35,0,0,1,7.82,17.64Zm8.36,0h0a1.34,1.34,0,1,1,1.41-1.33A1.37,1.37,0,0,1,16.18,17.64Z" style="fill:#fcc400"/><path d="M9.24,10.53a.18.18,0,0,0-.19.18v1.13a.18.18,0,0,0,.19.19.19.19,0,0,0,.19-.19V10.71A.19.19,0,0,0,9.24,10.53Z" style="fill:#fcc400"/><path d="M9.24,9.77A.24.24,0,0,0,9,10a.23.23,0,0,0,.24.23A.23.23,0,0,0,9.47,10,.23.23,0,0,0,9.24,9.77Z" style="fill:#fcc400"/><path d="M7.25,12.59,9.2,8.68l.28-.55H9.05L11,12l.28.56.21-.38H7a.25.25,0,0,0,0,.5h4.46a.26.26,0,0,0,.22-.38l-2-3.9-.28-.56a.25.25,0,0,0-.43,0l-2,3.91-.28.55C6.67,12.62,7.11,12.87,7.25,12.59Z" style="fill:#fcc400"/></svg>