<svg id="Layer_2" data-name="Layer 2" xmlns="http://www.w3.org/2000/svg" viewBox="0 0 24 24"><path d="M18.74,8.64H16.48V5.84a.57.57,0,0,0-.55-.57H3.56A.57.57,0,0,0,3,5.84V16a.57.57,0,0,0,.56.57h.57V6.4H15.37V13a3.28,3.28,0,0,1,.88-.12h.24V9.79h2.26a1.13,1.13,0,0,1,1.13,1.12h0v.57H17.62V12.6h2.26v2.81H18.51a2.54,2.54,0,0,0-3.35-1.33,2.51,2.51,0,0,0-1.33,1.33H10a2.53,2.53,0,0,0-2.34-1.56A2.47,2.47,0,0,0,5.34,17a2.46,2.46,0,0,0,4.81-.49H13.7a2.52,2.52,0,0,0,5,0h1.73A.56.56,0,0,0,21,16V10.89A2.26,2.26,0,0,0,18.74,8.64Zm-10.92,9H7.65a1.34,1.34,0,0,1-1.39-1.29A1.32,1.32,0,0,1,7.47,15h.18A1.33,1.33,0,0,1,9,16.25,1.35,1.35,0,0,1,7.82,17.64Zm8.36,0h0a1.34,1.34,0,1,1,1.41-1.33A1.37,1.37,0,0,1,16.18,17.64Z" style="fill:#fcc400"/><path d="M10.92,9.19a2,2,0,1,0-.52,2.63l.37.38c.14.14.3.38.51.41h.06a.35.35,0,0,0,.25-.51,1.34,1.34,0,0,0-.2-.21l-.53-.53A2,2,0,0,0,10.92,9.19ZM9.29,9h0a1.29,1.29,0,0,1,1.18.85,1.3,1.3,0,0,1-1.88,1.56A1.29,1.29,0,0,1,9.29,9Z" style="fill:#fcc400"/><path d="M9.13,9.72a.76.76,0,0,1,.41.15.72.72,0,0,1,.24.42.88.88,0,0,0,.06.28.37.37,0,0,0,.23.14h0a.31.31,0,0,0,.33-.27,1,1,0,0,0-.08-.51,1.43,1.43,0,0,0-.63-.72c-.25-.13-.82-.31-.91.1A.33.33,0,0,0,9.13,9.72Z" style="fill:#fcc400"/></svg>