<svg id="Layer_2" data-name="Layer 2" xmlns="http://www.w3.org/2000/svg" viewBox="0 0 24 24"><path d="M19.13,7.92h0a.3.3,0,0,1-.21-.13c-.34-.47-1.49-2.1-1.49-3.14A1.7,1.7,0,0,1,19.13,3a1.81,1.81,0,0,1,1.28.53,1.56,1.56,0,0,1,.46,1.14A6.47,6.47,0,0,1,19.38,7.8a.13.13,0,0,1-.06.07A.25.25,0,0,1,19.13,7.92Zm0-4.69a1.46,1.46,0,0,0-1.49,1.42,6.62,6.62,0,0,0,1.45,3h0c1.2-1.67,1.45-2.56,1.45-3a1.3,1.3,0,0,0-.39-1A1.56,1.56,0,0,0,19.13,3.23Z" style="fill:#616161;stroke:#616161;stroke-miterlimit:10;stroke-width:0.25px"/><path d="M19.13,5.3a.65.65,0,1,1,.66-.65h0a.65.65,0,0,1-.65.65Zm0-1.06a.41.41,0,1,0,.41.41h0a.4.4,0,0,0-.39-.41h0Z" style="fill:#616161;stroke:#616161;stroke-miterlimit:10;stroke-width:0.25px"/><path d="M4.86,20.94h0a.3.3,0,0,1-.21-.13c-.34-.47-1.49-2.1-1.49-3.14A1.7,1.7,0,0,1,4.86,16a1.81,1.81,0,0,1,1.28.53,1.56,1.56,0,0,1,.46,1.14A6.47,6.47,0,0,1,5.11,20.8a.09.09,0,0,1-.06.06A.27.27,0,0,1,4.86,20.94Zm0-4.7a1.48,1.48,0,0,0-1.49,1.43,6.62,6.62,0,0,0,1.45,3h0c1.2-1.68,1.45-2.56,1.45-3a1.3,1.3,0,0,0-.39-1A1.5,1.5,0,0,0,4.86,16.24Z" style="fill:#616161;stroke:#616161;stroke-miterlimit:10;stroke-width:0.25px"/><path d="M4.86,18.32a.65.65,0,0,1-.65-.65A.67.67,0,0,1,4.86,17h0a.68.68,0,0,1,.66.66h0A.68.68,0,0,1,4.86,18.32Zm0-1.06a.41.41,0,0,0-.41.41.43.43,0,0,0,.41.41.41.41,0,0,0,.41-.41h0A.41.41,0,0,0,4.86,17.26Z" style="fill:#616161;stroke:#616161;stroke-miterlimit:10;stroke-width:0.25px"/><path d="M4.5,9.18a2.09,2.09,0,0,0,2.07,2.07h11a3.5,3.5,0,0,1,0,7H7.71V16.83H17.6a2.09,2.09,0,0,0,.19-4.17H6.57a3.48,3.48,0,0,1,0-6.95H17V7.1H6.57A2.1,2.1,0,0,0,4.5,9.18Z" style="fill:#616161;fill-rule:evenodd"/></svg>