<svg id="Layer_1" data-name="Layer 1" xmlns="http://www.w3.org/2000/svg" viewBox="0 0 41.83 41.83"><path d="M36.64,13.22a17.4,17.4,0,0,1-1.41,1.28,16.52,16.52,0,0,1-1.35-1.25A8,8,0,0,1,31.29,8.1a4,4,0,1,1,8.05,0C39.34,9.76,38.27,11.56,36.64,13.22ZM42.55,8.1c0,5.9-7.24,10.32-7.24,10.32C35,18.42,28.07,14,28.07,8.1a7.24,7.24,0,1,1,14.48,0ZM3.94,15.2A4.83,4.83,0,0,0,8.77,20H34.51a8,8,0,0,1,0,16.09H16.81V32.9h17.7a4.83,4.83,0,1,0,0-9.65H8.77a8,8,0,1,1,0-16.09H26.46v3.22H8.77A4.82,4.82,0,0,0,3.94,15.2ZM9.29,37.35a17.4,17.4,0,0,1-1.41,1.28,16.52,16.52,0,0,1-1.35-1.25,8,8,0,0,1-2.59-5.15,4.1,4.1,0,0,1,4-4.16,4.1,4.1,0,0,1,4,4.16C12,33.89,10.92,35.69,9.29,37.35Zm5.91-5.12C15.2,38.13,8,42.55,8,42.55,7.6,42.55.72,38.13.72,32.23A7.31,7.31,0,0,1,8,24.86,7.31,7.31,0,0,1,15.2,32.23Zm-4.82-.13A2.42,2.42,0,1,1,8,29.68,2.41,2.41,0,0,1,10.38,32.1ZM35.31,10.38A2.42,2.42,0,1,0,32.9,8,2.42,2.42,0,0,0,35.31,10.38Z" transform="translate(-0.72 -0.72)" style="fill:#424242;fill-rule:evenodd"/></svg>