<svg id="Layer_2" data-name="Layer 2" xmlns="http://www.w3.org/2000/svg" viewBox="0 0 24 24"><path d="M20.63,3h-.78a.41.41,0,0,0-.27.17.4.4,0,0,0-.07.3.4.4,0,0,0,.36.35h.35V20.18h-.37a.37.37,0,0,0-.27.16.42.42,0,0,0-.07.31.4.4,0,0,0,.36.34h.76a.41.41,0,0,0,.41-.41V3.4A.41.41,0,0,0,20.63,3Z" style="fill:#fcc400"/><path d="M17.22,16.64V3.4a.41.41,0,0,0-.4-.41H3.92A1,1,0,0,0,3,4V20.59a.41.41,0,0,0,.23.36h8.73a.41.41,0,0,0,0-.81H4.2a.42.42,0,0,1-.42-.43V4.23a.42.42,0,0,1,.42-.42H16a.42.42,0,0,1,.42.42V16a.42.42,0,0,1-.42.42H13.58a1,1,0,0,0-1,1V20.6A.42.42,0,0,0,13,21a.34.34,0,0,0,.28-.12L17,17.28Zm-2.11,1.3-.94.94a.41.41,0,0,1-.46.09.41.41,0,0,1-.26-.39v-.94a.42.42,0,0,1,.42-.42h.94a.42.42,0,0,1,.39.26A.4.4,0,0,1,15.11,17.94Z" style="fill:#fcc400"/><path d="M18.73,3H18a.41.41,0,0,0-.27.17.4.4,0,0,0-.07.3.41.41,0,0,0,.36.35h.35V20.18H14.6a.38.38,0,0,0-.27.16.42.42,0,0,0-.07.31.41.41,0,0,0,.36.34h4.1a.41.41,0,0,0,.41-.41V3.4A.42.42,0,0,0,18.73,3Z" style="fill:#fcc400"/><path d="M6.3,10.89h7.56a.45.45,0,0,0,.27-.1.42.42,0,0,0,.14-.28.41.41,0,0,0-.35-.43H6.36a.41.41,0,0,0-.06.81Z" style="fill:#fcc400"/><path d="M6.3,9.38h7.56a.41.41,0,0,0,.06-.82H6.36a.41.41,0,0,0-.06.82Z" style="fill:#fcc400"/><path d="M13.81,7.87h.09a.41.41,0,0,0,.22-.07.4.4,0,0,0,.18-.26.39.39,0,0,0-.05-.31A.48.48,0,0,0,14,7.06H6.39A.39.39,0,0,0,6,7.44a.41.41,0,0,0,.34.43Z" style="fill:#fcc400"/><path d="M13.86,12.38a.41.41,0,0,0,.06-.82H6.39A.4.4,0,0,0,6,12a.41.41,0,0,0,.34.43h7.56Z" style="fill:#fcc400"/><path d="M11.13,13.1H6.41a.43.43,0,0,0-.49.32.45.45,0,0,0,0,.3.44.44,0,0,0,.27.19H11a.4.4,0,0,0,.22-.06.42.42,0,0,0,.13-.57A.41.41,0,0,0,11.13,13.1Z" style="fill:#fcc400"/></svg>