<svg id="Layer_3" data-name="Layer 3" xmlns="http://www.w3.org/2000/svg" viewBox="0 0 20.3 23"><path d="M1.6,22.9H18.8a1.47,1.47,0,0,0,1.5-1.5V1.6A1.47,1.47,0,0,0,18.8.1H1.6A1.47,1.47,0,0,0,.1,1.6V21.4A1.54,1.54,0,0,0,1.6,22.9ZM1,20.5.9,2.5A1.47,1.47,0,0,1,2.4,1H17.9a1.52,1.52,0,0,1,1.5,1.4l.1,18A1.47,1.47,0,0,1,18,21.9H2.4A1.37,1.37,0,0,1,1,20.5ZM19.4,1.1Z" style="fill:#fdc309;stroke:#fcc400;stroke-miterlimit:10;stroke-width:0.24729999899864197px"/><rect x="2.2" y="3.9" width="15.9" height="0.7" style="fill:#fdc309"/><rect x="2.2" y="2.3" width="15.9" height="0.7" style="fill:#fdc309"/><rect x="7.3" y="6.8" width="10" height="0.9" style="fill:#fdc309"/><rect x="7.3" y="10.6" width="10" height="0.9" style="fill:#fdc309"/><rect x="7.3" y="14.5" width="10" height="0.9" style="fill:#fdc309"/><rect x="4.6" y="6.5" width="1.7" height="1.7" style="fill:none;stroke:#fdc309;stroke-miterlimit:10;stroke-width:0.49459999799728394px"/><rect x="4.6" y="10.3" width="1.7" height="1.7" style="fill:none;stroke:#fdc309;stroke-miterlimit:10;stroke-width:0.49459999799728394px"/><rect x="4.6" y="14.2" width="1.7" height="1.7" style="fill:none;stroke:#fdc309;stroke-miterlimit:10;stroke-width:0.49459999799728394px"/><rect x="3.1" y="7" width="0.6" height="0.6" style="fill:#fdc309"/><rect x="3.1" y="10.8" width="0.6" height="0.6" style="fill:#fdc309"/><rect x="3.1" y="14.7" width="0.6" height="0.6" style="fill:#fdc309"/><rect x="7.3" y="18.4" width="10" height="0.9" style="fill:#fdc309"/><rect x="4.6" y="18" width="1.7" height="1.7" style="fill:none;stroke:#fdc309;stroke-miterlimit:10;stroke-width:0.49459999799728394px"/><rect x="3.1" y="18.5" width="0.6" height="0.6" style="fill:#fdc309"/></svg>