<svg id="Layer_2" data-name="Layer 2" xmlns="http://www.w3.org/2000/svg" viewBox="0 0 24 24"><path d="M18.74,8.61H16.48V5.82a.57.57,0,0,0-.55-.57H3.56A.56.56,0,0,0,3,5.82V15.93a.57.57,0,0,0,.56.57h.57V6.38H15.37V13a3.72,3.72,0,0,1,.88-.11h.24V9.76h2.26a1.13,1.13,0,0,1,1.13,1.12h0v.56H17.62v1.12h2.26v2.81H18.51a2.55,2.55,0,0,0-3.35-1.33,2.58,2.58,0,0,0-1.33,1.33H10a2.53,2.53,0,0,0-2.34-1.55A2.46,2.46,0,0,0,5.34,17,2.42,2.42,0,0,0,7,18.65a2.46,2.46,0,0,0,3.14-2.15H13.7a2.52,2.52,0,0,0,5,0h1.73a.56.56,0,0,0,.56-.56V10.87A2.26,2.26,0,0,0,18.74,8.61Zm-10.92,9a.49.49,0,0,1-.17,0,1.34,1.34,0,0,1-.18-2.67h.18a1.34,1.34,0,0,1,.17,2.67Zm8.36,0h0a1.34,1.34,0,1,1,1.41-1.33A1.36,1.36,0,0,1,16.18,17.61Z" style="fill:#fcc400"/><ellipse cx="9.94" cy="10.24" rx="2.29" ry="2.29" style="fill:none;stroke:#fcc400;stroke-miterlimit:2;stroke-width:0.5px"/><path d="M8.34,10.39l.71,1a.34.34,0,0,0,.53.07L11.25,10l.24-.2A.34.34,0,0,0,11,9.36l-1.67,1.4L9.1,11l.53.07-.7-1a.36.36,0,0,0-.47-.12.34.34,0,0,0-.12.47Z" style="fill:#fcc400"/></svg>