<svg id="Layer_1" data-name="Layer 1" xmlns="http://www.w3.org/2000/svg" viewBox="0 0 45.42 37.05"><path d="M44.62,35.1H41.87V18A2,2,0,0,0,39.94,16c-.65,0-1.31,0-2,0H35c-.2,0-.41,0-.62,0a1.93,1.93,0,0,0-1.93,1.83c-.05.92,0,1.86,0,2.79V26.5c0,2.87,0,5.73,0,8.6H29.11V4.74c0-.51,0-1,0-1.53a2,2,0,0,0-1.92-2.13c-.5,0-1,0-1.51,0-1.33,0-2.69-.08-4,0a2,2,0,0,0-1.92,2.13c0,.18,0,.36,0,.54V35.1H16.36V12.29A5.31,5.31,0,0,0,16.29,11C15.84,9.33,14,9.58,12.7,9.58H9.12A2,2,0,0,0,7,11.7C6.89,15.79,7,19.9,7,24c0,3.7,0,7.41,0,11.11H2.1a1.5,1.5,0,0,0,0,3H44.62A1.5,1.5,0,0,0,44.62,35.1ZM13.36,12.58V35.1H10V12.58h3.38Zm9.38,12.64V4.08h3.37v31H22.74Zm12.75-5.08V19h3.38V35.1H35.49Z" transform="translate(-0.65 -1.04)" style="fill:#424242"/></svg>