<svg id="Layer_2" data-name="Layer 2" xmlns="http://www.w3.org/2000/svg" viewBox="0 0 24 24"><path d="M11.24,4.73l-.64-.64a.43.43,0,0,0-.61,0h0l-4,4L4.36,6.48a.44.44,0,0,0-.62,0h0l-.64.64a.44.44,0,0,0,0,.62h0L5.33,10a1,1,0,0,0,.64.28A.84.84,0,0,0,6.6,10l4.64-4.63A.51.51,0,0,0,11.24,4.73Z" style="fill:#fff"/><path d="M20.44,9.06H12.57A.61.61,0,0,1,12,8.45V7.24a.61.61,0,0,1,.61-.61h7.87a.6.6,0,0,1,.6.6h0V8.45a.61.61,0,0,1-.61.61Z" style="fill:#fff"/><path d="M20.44,14.5H10.75a.6.6,0,0,1-.6-.6h0V12.69a.6.6,0,0,1,.59-.61h9.7a.6.6,0,0,1,.6.6h0V13.9A.6.6,0,0,1,20.44,14.5Z" style="fill:#fff"/><path d="M20.44,20H10.75a.6.6,0,0,1-.6-.6h0V18.14a.6.6,0,0,1,.59-.61h9.7a.6.6,0,0,1,.6.6h0v1.21a.6.6,0,0,1-.55.65Z" style="fill:#fff"/><path d="M7.23,14.63a.18.18,0,1,1,.18-.18.18.18,0,0,1-.18.18h0m.18-1.08.24.3H7.11v-.3M5.79,14.63A.18.18,0,1,1,6,14.45a.18.18,0,0,1-.18.18h0m1.68-1.26H7.11v-.48H5.44a.24.24,0,0,0-.24.24v1.32h.24a.35.35,0,0,0,.3.41.35.35,0,0,0,.41-.29.24.24,0,0,0,0-.12h.72a.36.36,0,1,0,.72,0h.24v-.6Z" style="fill:#fff"/><path d="M7.23,18.22a.18.18,0,0,1-.18-.17.18.18,0,0,1,.36,0,.18.18,0,0,1-.18.17m.18-1.07.24.3H7.11v-.3M5.79,18.22a.18.18,0,0,1-.17-.17.18.18,0,0,1,.17-.18.18.18,0,0,1,.18.18H6a.18.18,0,0,1-.18.17M7.47,17H7.11v-.48H5.44a.24.24,0,0,0-.24.24v1.32h.24a.36.36,0,0,0,.41.3.37.37,0,0,0,.3-.3h.72a.36.36,0,0,0,.72,0h.24v-.6Z" style="fill:#fff"/></svg>