<svg id="Layer_1" data-name="Layer 1" xmlns="http://www.w3.org/2000/svg" xmlns:xlink="http://www.w3.org/1999/xlink" viewBox="0 0 28 28"><defs><clipPath id="clip-path"><rect width="28" height="28" style="fill:none"/></clipPath></defs><g style="clip-path:url(#clip-path)"><path d="M8.2,9.26a4.1,4.1,0,1,0-4.53,4.08V22.2a.43.43,0,0,0,.86,0V13.34A4.11,4.11,0,0,0,8.2,9.26Zm-6,2.53L6.62,7.31A3.19,3.19,0,0,1,4.1,12.45,3.21,3.21,0,0,1,2.15,11.79Zm-.57-.57A3.19,3.19,0,0,1,6.05,6.74Z" style="fill:#efc32c"/><path d="M27,9.23H20a1,1,0,0,0-1,1v3.06a1,1,0,0,0,1,1h7a1,1,0,0,0,1-1V10.21A1,1,0,0,0,27,9.23Z" style="fill:#efc32c"/><path d="M26.93,14.93h-8a.66.66,0,0,1-.66-.65V9.9a1,1,0,0,0-1-1h-3.7a1.86,1.86,0,0,0-1.43.78L9.93,13A2.8,2.8,0,0,1,8.79,14l-2,.76A1.47,1.47,0,0,0,5.92,16v3.77a1,1,0,0,0,1,1H8a2.83,2.83,0,0,0,5.43,0h6a2.83,2.83,0,0,0,5.43,0h2.05a1,1,0,0,0,1-1V15.94A1,1,0,0,0,26.93,14.93ZM10.69,21.41A1.41,1.41,0,1,1,12.1,20,1.4,1.4,0,0,1,10.69,21.41Zm5.84-7.7a.67.67,0,0,1-.67.67l-4.24-.06c-.37,0-.51-.27-.32-.58l1.79-2.94a1.34,1.34,0,0,1,1-.57h1.75a.67.67,0,0,1,.67.67v2.81Zm5.64,7.7a1.41,1.41,0,1,1,1.4-1.4A1.41,1.41,0,0,1,22.17,21.41Z" style="fill:#efc32c"/></g></svg>