<svg id="Layer_1" data-name="Layer 1" xmlns="http://www.w3.org/2000/svg" xmlns:xlink="http://www.w3.org/1999/xlink" viewBox="0 0 28 28"><defs><clipPath id="clip-path"><rect width="28" height="28" style="fill:none"/></clipPath></defs><g style="clip-path:url(#clip-path)"><path d="M6.42,11.32A2.36,2.36,0,1,0,4.06,9,2.35,2.35,0,0,0,6.42,11.32Z" style="fill:#d9d9d9"/><path d="M6.42,12.07A3.11,3.11,0,1,1,9.52,9,3.1,3.1,0,0,1,6.42,12.07Zm0-4.7a1.6,1.6,0,1,0,0,3.19,1.6,1.6,0,0,0,0-3.19Z" style="fill:#efc32c"/><path d="M6.42,19.5a.74.74,0,0,1-.51-.2C5.66,19.08,0,13.82,0,9A6.39,6.39,0,0,1,.32,7a.75.75,0,1,1,1.43.47A4.9,4.9,0,0,0,1.51,9c0,3.42,3.56,7.37,4.91,8.74.22-.23.51-.53.83-.88a.75.75,0,1,1,1.12,1c-.82.9-1.42,1.46-1.44,1.48A.78.78,0,0,1,6.42,19.5Z" style="fill:#efc32c"/><path d="M9.94,15.36a.75.75,0,0,1-.62-1.18,9.82,9.82,0,0,0,2-5.23A4.91,4.91,0,0,0,6.42,4a4.84,4.84,0,0,0-2.9,1,.76.76,0,0,1-.9-1.22A6.42,6.42,0,0,1,12.83,9,11.28,11.28,0,0,1,10.57,15,.78.78,0,0,1,9.94,15.36Z" style="fill:#efc32c"/><path d="M21.58,11.32A2.36,2.36,0,1,0,19.23,9,2.36,2.36,0,0,0,21.58,11.32Z" style="fill:#d9d9d9"/><path d="M21.58,12.07A3.11,3.11,0,1,1,24.69,9,3.1,3.1,0,0,1,21.58,12.07Zm0-4.7A1.6,1.6,0,1,0,23.18,9,1.6,1.6,0,0,0,21.58,7.37Z" style="fill:#efc32c"/><path d="M21.58,19.5a.78.78,0,0,1-.51-.2c-.24-.22-5.9-5.48-5.9-10.35a6.39,6.39,0,0,1,.31-2,.76.76,0,0,1,1.44.47A4.9,4.9,0,0,0,16.68,9c0,3.42,3.56,7.37,4.9,8.74.23-.23.52-.53.84-.88a.75.75,0,0,1,1.06-.06.76.76,0,0,1,.06,1.07c-.82.9-1.42,1.46-1.45,1.48A.74.74,0,0,1,21.58,19.5Z" style="fill:#efc32c"/><path d="M25.11,15.36a.72.72,0,0,1-.42-.13.76.76,0,0,1-.21-1.05,9.76,9.76,0,0,0,2-5.23,4.91,4.91,0,0,0-7.81-4,.76.76,0,0,1-.89-1.22A6.42,6.42,0,0,1,28,9,11.22,11.22,0,0,1,25.73,15,.75.75,0,0,1,25.11,15.36Z" style="fill:#efc32c"/><path d="M6.42,24.72A1.4,1.4,0,1,0,5,23.32,1.4,1.4,0,0,0,6.42,24.72Z" style="fill:#d9d9d9"/><path d="M21.58,24.72a1.4,1.4,0,1,0-1.39-1.4A1.4,1.4,0,0,0,21.58,24.72Z" style="fill:#d9d9d9"/><path d="M15.06,22.56H8.43a2.16,2.16,0,1,0,0,1.51h6.63a.75.75,0,0,0,.75-.75A.76.76,0,0,0,15.06,22.56ZM6.42,24a.64.64,0,1,1,0-1.28.64.64,0,0,1,.64.64A.64.64,0,0,1,6.42,24Z" style="fill:#efc32c"/><path d="M21.58,21.17a2.15,2.15,0,0,0-2,1.39H18.35a.76.76,0,0,0-.75.76.75.75,0,0,0,.75.75h1.22a2.15,2.15,0,1,0,2-2.9Zm0,2.79a.64.64,0,0,1-.64-.64.65.65,0,0,1,1.29,0A.65.65,0,0,1,21.58,24Z" style="fill:#efc32c"/></g></svg>