<svg id="Layer_1" data-name="Layer 1" xmlns="http://www.w3.org/2000/svg" viewBox="0 0 28 28"><path d="M17.38,4.34H10.59a4,4,0,0,0-4,4v8.12a4,4,0,0,0,1.86,3.4v1.61a2.17,2.17,0,0,0,4.34,0v-1h2.41v1a2.17,2.17,0,0,0,4.34,0V19.88a4,4,0,0,0,1.86-3.4V8.36A4,4,0,0,0,17.38,4.34ZM10.59,5.77h6.79A2.59,2.59,0,0,1,20,8.36v5.08a1.89,1.89,0,0,0-.81-.18,2.28,2.28,0,0,0,0,4.55,2,2,0,0,0,.49-.07,2.56,2.56,0,0,1-2.24,1.33H10.59a2.49,2.49,0,0,1-2.24-1.33,1.81,1.81,0,0,0,.49.07,2.28,2.28,0,0,0,0-4.55,1.89,1.89,0,0,0-.81.18V8.36A2.58,2.58,0,0,1,10.59,5.77Zm8.57,10.57a.81.81,0,1,1,.81-.8A.82.82,0,0,1,19.16,16.34ZM8,15.54a.81.81,0,1,1,.81.8A.79.79,0,0,1,8,15.54Zm3.29,5.95a.74.74,0,0,1-1.47,0v-1a6.17,6.17,0,0,0,.74.07h.73Zm6.79,0a.74.74,0,0,1-1.47,0v-1h.74a6,6,0,0,0,.73-.07ZM10.8,12.28h6.4a1.6,1.6,0,0,0,1.61-1.61V8.61A1.6,1.6,0,0,0,17.2,7H10.8A1.6,1.6,0,0,0,9.19,8.61v2.06A1.58,1.58,0,0,0,10.8,12.28Zm-.18-3.71a.17.17,0,0,1,.18-.17h6.4a.17.17,0,0,1,.18.17v2.07a.17.17,0,0,1-.18.17H10.8a.17.17,0,0,1-.18-.17Z" style="fill:#efc32c"/></svg>