<svg id="Layer_2" data-name="Layer 2" xmlns="http://www.w3.org/2000/svg" viewBox="0 0 24 24"><path d="M18.34,3H12.07A2.61,2.61,0,0,0,9.46,5.61v6.27a2.61,2.61,0,0,0,2.61,2.62h6.27A2.61,2.61,0,0,0,21,11.88V5.61A2.61,2.61,0,0,0,18.34,3Zm1.57,8.88a1.57,1.57,0,0,1-1.57,1.57H12.07a1.58,1.58,0,0,1-1.57-1.56V5.61a1.58,1.58,0,0,1,1.57-1.56h6.27a1.56,1.56,0,0,1,1.57,1.56Z" style="fill:#fcc400"/><path d="M14,15.77a.52.52,0,0,0-.52.53v2.08A1.59,1.59,0,0,1,11.93,20H5.66a1.58,1.58,0,0,1-1.57-1.57V12.12a1.58,1.58,0,0,1,1.57-1.57H7.75a.52.52,0,1,0,0-1H5.66a2.61,2.61,0,0,0-2.61,2.61v6.27A2.61,2.61,0,0,0,5.66,21h6.27a2.61,2.61,0,0,0,2.61-2.61V16.3a.52.52,0,0,0-.52-.53Z" style="fill:#fcc400"/><path d="M5.48,14.29a.5.5,0,0,0,.5.5h.63A4.92,4.92,0,0,0,8.1,17.13c-.34.19-.77.43-1.34.71a.5.5,0,0,0,.44.9C8,18.36,8.56,18,9,17.76c.56.35,1.15.68,1.75,1a.5.5,0,0,0,.67-.23.49.49,0,0,0-.22-.67h0a15,15,0,0,1-1.34-.73l1-1a.5.5,0,0,0-.71-.71l-1,1L9,16.55l-.22-.16a3.52,3.52,0,0,1-1.1-1.6H9a.5.5,0,0,0,0-1H6a.5.5,0,0,0-.5.5Z" style="fill:#fcc400"/><path d="M15.59,6h0v0l0,0h0v0l0,0h0v0H15l0,0h0l0,0v0h0l0,0V6h0l-2.6,5.19a.44.44,0,1,0,.78.39h0l.74-1.49h2.93l.75,1.49a.43.43,0,0,0,.58.2.44.44,0,0,0,.19-.59ZM14.17,9.18l1-2.06,1,2.06Z" style="fill:#fcc400"/></svg>