<svg id="Layer_2" data-name="Layer 2" xmlns="http://www.w3.org/2000/svg" viewBox="0 0 24 24"><path d="M18.74,8.61H16.48V5.82a.57.57,0,0,0-.55-.57H3.56A.56.56,0,0,0,3,5.81H3V15.93a.57.57,0,0,0,.56.57h.57V6.38H15.37V13a3.72,3.72,0,0,1,.88-.11h.24V9.76h2.26a1.13,1.13,0,0,1,1.13,1.12h0v.56H17.62v1.12h2.26v2.81H18.51A2.55,2.55,0,0,0,15.16,14a2.61,2.61,0,0,0-1.33,1.33H10a2.54,2.54,0,0,0-2.34-1.55,2.46,2.46,0,0,0-2.43,2.49,2.62,2.62,0,0,0,.11.69A2.42,2.42,0,0,0,7,18.65,2.46,2.46,0,0,0,10.05,17a2,2,0,0,0,.09-.48H13.7a2.52,2.52,0,0,0,5,0h1.73a.56.56,0,0,0,.56-.56V10.87A2.27,2.27,0,0,0,18.74,8.61Zm-10.92,9a.49.49,0,0,1-.17,0,1.34,1.34,0,0,1-.18-2.67h.18a1.34,1.34,0,0,1,.17,2.67Zm8.36,0h0a1.34,1.34,0,1,1,1.41-1.33,1.36,1.36,0,0,1-1.39,1.33Z" style="fill:#fff"/><path d="M9.37,8.47v4m-2-2h4" style="fill:#fff;stroke:#fff;stroke-linecap:round;stroke-linejoin:round;stroke-width:1.07234525680542px"/></svg>