<svg id="Layer_2" data-name="Layer 2" xmlns="http://www.w3.org/2000/svg" viewBox="0 0 24 24"><g id="SVGRepo_iconCarrier" data-name="SVGRepo iconCarrier"><path d="M18.13,19.69H17.07V17.8a5.94,5.94,0,0,0-2.92-4.9,1.07,1.07,0,0,1-.39-.9,1.07,1.07,0,0,1,.39-.9,5.94,5.94,0,0,0,2.92-4.9V4.31h1.06a.6.6,0,0,0,.6-.6.59.59,0,0,0-.6-.59H5.87a.59.59,0,0,0-.6.59.6.6,0,0,0,.6.6H6.93V6.2a5.94,5.94,0,0,0,2.92,4.9,1.07,1.07,0,0,1,.39.9,1.07,1.07,0,0,1-.39.9,5.94,5.94,0,0,0-2.92,4.9v1.89H5.87a.6.6,0,0,0-.6.6.59.59,0,0,0,.6.59H18.13a.59.59,0,0,0,.6-.59A.6.6,0,0,0,18.13,19.69Zm-10-1.89a4.9,4.9,0,0,1,2.4-3.91A2.23,2.23,0,0,0,11.43,12a2.23,2.23,0,0,0-.91-1.89A4.9,4.9,0,0,1,8.12,6.2V4.31h7.76V6.2a4.9,4.9,0,0,1-2.4,3.91A2.23,2.23,0,0,0,12.57,12a2.23,2.23,0,0,0,.91,1.89,4.9,4.9,0,0,1,2.4,3.91v1.89h-.2c-.49-1.85-3-3.86-3.31-4.1a.6.6,0,0,0-.74,0c-.31.24-2.82,2.25-3.31,4.1h-.2V17.8Zm6.3,1.89H9.58A9.55,9.55,0,0,1,12,16.83,9.55,9.55,0,0,1,14.42,19.69Z" style="fill:#fcc400"/><path d="M12,14.54a.59.59,0,0,0,.42-.17.59.59,0,0,0,0-.85.6.6,0,0,0-.84,0,.59.59,0,0,0,0,.85A.59.59,0,0,0,12,14.54Z" style="fill:#fcc400"/><path d="M12,11.37a.59.59,0,0,0,.6-.59V9.72a.6.6,0,0,0-1.2,0v1.06A.59.59,0,0,0,12,11.37Z" style="fill:#fcc400"/></g></svg>