<svg id="Layer_2" data-name="Layer 2" xmlns="http://www.w3.org/2000/svg" viewBox="0 0 24 24"><path d="M18.74,8.64H16.48V5.84a.57.57,0,0,0-.55-.57H3.56A.57.57,0,0,0,3,5.84V16a.57.57,0,0,0,.56.57h.57V6.4H15.37V13a3.28,3.28,0,0,1,.88-.12h.24V9.79h2.26a1.13,1.13,0,0,1,1.13,1.12h0v.57H17.62V12.6h2.26v2.81H18.51a2.54,2.54,0,0,0-3.33-1.34h0a2.48,2.48,0,0,0-1.33,1.33H10a2.53,2.53,0,0,0-2.34-1.56,2.48,2.48,0,0,0-2.42,2.52,2.76,2.76,0,0,0,.1.63,2.46,2.46,0,0,0,4.81-.49H13.7a2.52,2.52,0,0,0,5,0h1.73A.57.57,0,0,0,21,16V10.89A2.28,2.28,0,0,0,18.74,8.64Zm-10.92,9H7.65a1.34,1.34,0,0,1-1.39-1.29h0A1.32,1.32,0,0,1,7.47,15h.18A1.33,1.33,0,0,1,9,16.25,1.35,1.35,0,0,1,7.82,17.64Zm8.36,0h0a1.34,1.34,0,1,1,1.41-1.33,1.37,1.37,0,0,1-1.41,1.33Z" style="fill:#616161"/><g id="SVGRepo_iconCarrier" data-name="SVGRepo iconCarrier"><path d="M11,12h-.27v-.48A1.51,1.51,0,0,0,10,10.23.25.25,0,0,1,9.91,10,.27.27,0,0,1,10,9.78a1.51,1.51,0,0,0,.74-1.24V8.06H11a.15.15,0,0,0,0-.3H7.91a.15.15,0,0,0,0,.3h.27v.48a1.5,1.5,0,0,0,.73,1.24.3.3,0,0,1,0,.42l0,0a1.54,1.54,0,0,0-.73,1.24V12H7.91a.15.15,0,0,0-.15.15.14.14,0,0,0,.13.15H11a.15.15,0,0,0,0-.3Zm-2.53-.48a1.25,1.25,0,0,1,.6-1A.57.57,0,0,0,9.32,10a.55.55,0,0,0-.24-.48,1.25,1.25,0,0,1-.6-1V8.06h2v.48a1.23,1.23,0,0,1-.61,1A.57.57,0,0,0,9.6,10a.59.59,0,0,0,.23.48,1.23,1.23,0,0,1,.61,1V12h0a2.62,2.62,0,0,0-.84-1,.15.15,0,0,0-.18,0,2.62,2.62,0,0,0-.84,1h0v-.48Zm1.59.48H8.85a2.34,2.34,0,0,1,.61-.72,2.34,2.34,0,0,1,.61.72Z" style="fill:#616161"/><path d="M9.46,10.65a.16.16,0,0,0,.14-.17.14.14,0,0,0,0-.09.16.16,0,0,0-.22,0,.17.17,0,0,0,0,.17A.24.24,0,0,0,9.46,10.65Z" style="fill:#616161"/><path d="M9.46,9.85a.15.15,0,0,0,.15-.15V9.43a.15.15,0,1,0-.3,0h0V9.7A.15.15,0,0,0,9.46,9.85Z" style="fill:#616161"/></g></svg>