<svg width="30" height="30" viewBox="0 0 30 30" fill="none" xmlns="http://www.w3.org/2000/svg">
<circle cx="15" cy="15" r="15" fill="#FDC309"/>
<g clip-path="url(#clip0_675_845)">
<path fill-rule="evenodd" clip-rule="evenodd" d="M19.6568 18.2969C19.464 18.8426 18.6976 19.2941 18.0864 19.4262C17.668 19.515 17.1224 19.5853 15.284 18.8234C13.2192 17.968 10.352 14.9208 10.352 12.893C10.352 11.8607 10.9472 10.6586 11.988 10.6586C12.4888 10.6586 12.5992 10.6684 12.764 11.0637C12.9568 11.5294 13.4272 12.6769 13.4832 12.7945C13.7144 13.2771 13.248 13.5596 12.9096 13.9797C12.8016 14.1061 12.6792 14.2429 12.816 14.4781C12.952 14.7086 13.4224 15.4752 14.1136 16.0906C15.0064 16.8861 15.7304 17.14 15.9896 17.248C16.1824 17.3281 16.4128 17.3094 16.5536 17.159C16.732 16.9661 16.9536 16.6462 17.1792 16.3309C17.3384 16.1052 17.5408 16.077 17.7528 16.157C17.896 16.2066 19.716 17.0519 19.7928 17.1871C19.8496 17.2855 19.8496 17.7511 19.6568 18.2969ZM15.0016 7H14.9976C10.5872 7 7 10.5883 7 15C7 16.7493 7.56401 18.3723 8.52321 19.6887L7.5264 22.6613L10.6008 21.6789C11.8656 22.516 13.3752 23 15.0016 23C19.412 23 23 19.4117 23 15C23 10.5883 19.412 7 15.0016 7Z" fill="white"/>
</g>
<defs>
<clipPath id="clip0_675_845">
<rect width="16" height="16" fill="white" transform="translate(7 7)"/>
</clipPath>
</defs>
</svg>
